<svg xmlns="http://www.w3.org/2000/svg" width="24" height="24" fill="currentColor" viewBox="0 0 24 24">
  <path fill="currentColor" d="M7.05 7.419a7.003 7.003 0 0 1 9.9 0 7.002 7.002 0 0 1 0 9.9 7.003 7.003 0 0 1-9.9 0 7.003 7.003 0 0 1 0-9.9Zm8.84 1.06a5.503 5.503 0 0 0-7.78 0 5.503 5.503 0 0 0 0 7.78 5.503 5.503 0 0 0 7.78 0 5.503 5.503 0 0 0 0-7.78Z"/>
  <path fill="currentColor" d="M2.188 10.385c.41.053.7.43.647.84a9.142 9.142 0 0 0 .966 5.435l.19.343v.001a9.141 9.141 0 0 0 4.539 3.939.75.75 0 0 1-.557 1.392 10.64 10.64 0 0 1-5.281-4.58 10.641 10.641 0 0 1-1.345-6.721.751.751 0 0 1 .84-.649Zm9.814-8.775c2.443 0 4.69.829 6.494 2.203a.75.75 0 0 1-.91 1.193 9.185 9.185 0 0 0-5.584-1.897A9.19 9.19 0 0 0 6.313 5.07a.75.75 0 0 1-.923-1.18 10.687 10.687 0 0 1 6.612-2.28Zm9.812 8.775a.751.751 0 0 1 .84.649 10.642 10.642 0 0 1-1.345 6.721 10.64 10.64 0 0 1-5.28 4.58.75.75 0 0 1-.557-1.392 9.141 9.141 0 0 0 4.539-3.939 9.141 9.141 0 0 0 1.155-5.779.75.75 0 0 1 .648-.84Z"/>
</svg>
