<svg xmlns="http://www.w3.org/2000/svg" width="24" height="24" fill="currentColor" viewBox="0 0 24 24">
  <path fill="currentColor" fill-rule="evenodd" d="M15.33 4.161c1.216-1.215 3.211-1.304 4.482-.102a3.194 3.194 0 0 1 .998 2.272 3.19 3.19 0 0 1-.932 2.299l-2.228 2.227.06.06a2.066 2.066 0 0 1 .448 2.248c-.104.25-.256.477-.447.669l-.66.659a1.314 1.314 0 0 1-1.856 0l-.324-.324-4.85 4.85a3.562 3.562 0 0 1-3.24.969l-2.025.884a1.313 1.313 0 0 1-1.454-.274 1.102 1.102 0 0 1-.23-1.22l.94-2.155a3.562 3.562 0 0 1 .97-3.242l4.85-4.85-.326-.326a1.315 1.315 0 0 1 0-1.857l.659-.66a2.067 2.067 0 0 1 2.248-.446c.25.103.477.256.669.447l.06.06 2.189-2.188ZM5.779 14.777a2.44 2.44 0 0 0-.632 2.355.564.564 0 0 1-.027.37L4.11 19.81a.186.186 0 0 0 .085.043.19.19 0 0 0 .11-.011l2.194-.958.09-.03a.565.565 0 0 1 .28.001 2.438 2.438 0 0 0 2.354-.63l4.85-4.852-3.445-3.446-4.851 4.85Zm13.262-9.9c-.807-.763-2.107-.728-2.913.079L13.54 7.543a.564.564 0 0 1-.795 0l-.458-.458a.942.942 0 0 0-1.023-.203.939.939 0 0 0-.303.203l-.66.658a.189.189 0 0 0 0 .266l.71.71.017.013.013.016 4.213 4.213c.005.005.011.008.016.014.005.004.008.01.013.015l.708.708a.188.188 0 0 0 .265 0l.659-.66a.94.94 0 0 0 0-1.325l-.458-.458a.564.564 0 0 1 0-.795l2.625-2.625a2.065 2.065 0 0 0-.042-2.958Z" clip-rule="evenodd"/>
</svg>
