<svg xmlns="http://www.w3.org/2000/svg" width="24" height="24" fill="currentColor" viewBox="0 0 24 24">
  <path fill="currentColor" d="M12 2a10 10 0 1 0 0 20 10 10 0 0 0 0-20Zm0 13a3 3 0 1 1 0-5.999A3 3 0 0 1 12 15Zm2.75-7.17A5 5 0 0 0 13 7.1v-3a7.94 7.94 0 0 1 3.9 1.62l-2.15 2.11ZM11 7.1a5 5 0 0 0-1.75.73L7.1 5.69A7.94 7.94 0 0 1 11 4.07V7.1ZM7.83 9.25A5 5 0 0 0 7.1 11h-3a7.94 7.94 0 0 1 1.59-3.9l2.14 2.15ZM7.1 13a5 5 0 0 0 .73 1.75L5.69 16.9A7.94 7.94 0 0 1 4.07 13H7.1Zm2.15 3.17a5 5 0 0 0 1.75.73v3a7.94 7.94 0 0 1-3.9-1.62l2.15-2.11Zm3.75.73a5 5 0 0 0 1.75-.73l2.15 2.14a7.94 7.94 0 0 1-3.9 1.62V16.9Zm3.17-2.15A5 5 0 0 0 16.9 13h3a7.94 7.94 0 0 1-1.62 3.9l-2.11-2.15ZM16.9 11a5 5 0 0 0-.73-1.75l2.14-2.15a7.94 7.94 0 0 1 1.62 3.9H16.9Z"/>
</svg>
