<svg xmlns="http://www.w3.org/2000/svg" width="24" height="24" fill="currentColor" viewBox="0 0 24 24">
  <path fill="currentColor" d="M19.995 14.898a1 1 0 0 0-.893-.893L19 14h-1.93l-6 6H19a1 1 0 0 0 .995-.898L20 19v-4l-.005-.102ZM7.01 16a1 1 0 1 1 0 2H7a1 1 0 1 1 0-2h.01Zm7.768-9.606a1 1 0 0 0-1.414 0L12 7.757v8.485l5.606-5.606a1 1 0 0 0 0-1.414l-2.828-2.828ZM22 19a3 3 0 0 1-2.846 2.996L19 22H7a5 5 0 0 1-5-5V5a3 3 0 0 1 3-3h4a2.999 2.999 0 0 1 2.998 2.933 3 3 0 0 1 4.194.046l2.828 2.829A2.998 2.998 0 0 1 19.066 12 3 3 0 0 1 22 15v4ZM4 17a3 3 0 1 0 6 0V5a1 1 0 0 0-1-1H5a1 1 0 0 0-1 1v12Z"/>
</svg>
