<svg xmlns="http://www.w3.org/2000/svg" width="24" height="24" fill="currentColor" viewBox="0 0 24 24">
  <path fill="currentColor" d="M8.74 2.343c1.736-1.736 4.542-1.787 6.35-.165l.172.163 6.393 6.392.002.003c1.786 1.798 1.79 4.73-.002 6.521l-6.39 6.39c-1.793 1.792-4.724 1.788-6.522.003l-.003-.002-6.39-6.39C.56 13.464.563 10.533 2.348 8.735l.002-.003 6.39-6.39Zm4.914 1.238c-1.028-.831-2.554-.769-3.499.176l-6.39 6.39c-1.012 1.022-1.008 2.689 0 3.696l6.39 6.39c1.022 1.012 2.688 1.007 3.695 0l6.39-6.39c1.007-1.007 1.012-2.675 0-3.696L13.853 3.76l-.199-.179Z"/>
  <path fill="currentColor" d="M5.543 5.543a1 1 0 0 1 1.414 0l11.5 11.5a1 1 0 1 1-1.414 1.414l-11.5-11.5a1 1 0 0 1 0-1.414Z"/>
  <path fill="currentColor" d="M17.043 5.543a1 1 0 1 1 1.414 1.414l-11.5 11.5a1 1 0 1 1-1.414-1.414l11.5-11.5Z"/>
</svg>
