<svg xmlns="http://www.w3.org/2000/svg" width="24" height="24" fill="currentColor" viewBox="0 0 24 24">
  <g clip-path="url(#a)">
    <path fill="currentColor" d="M3.36 14.07h5.67c.661 0 1.177-.18 1.546-.541.37-.36.554-.869.554-1.525V6.335c0-.656-.185-1.165-.554-1.525-.369-.36-.885-.54-1.547-.54H3.36c-.656 0-1.167.18-1.533.54-.367.36-.55.869-.55 1.525v5.669c0 .662.183 1.172.55 1.53.366.357.877.535 1.533.535Zm11.426.114h5.783c.686 0 1.216-.185 1.591-.554.375-.37.563-.888.563-1.556v-5.8c0-.674-.188-1.196-.563-1.565-.375-.37-.905-.554-1.59-.554h-5.784c-.68 0-1.207.185-1.582.554-.375.37-.562.89-.562 1.564v5.801c0 .668.187 1.187.562 1.556.375.369.902.554 1.582.554Zm.018-1.39c-.258 0-.452-.064-.58-.192-.13-.13-.194-.326-.194-.59V6.327c0-.263.065-.46.194-.589.128-.129.322-.193.58-.193h5.748c.27 0 .467.064.593.193.126.13.189.325.189.59v5.686c0 .263-.063.46-.189.589-.126.128-.324.193-.593.193h-5.748ZM1.945 17.358a.634.634 0 0 0-.466.206.685.685 0 0 0-.202.497c0 .199.068.367.202.505.135.138.29.206.466.206h2.84v-1.415h-2.84Zm4.368 2.82c.387 0 .74-.095 1.06-.285.319-.19.574-.445.764-.765.19-.319.286-.672.286-1.059 0-.386-.095-.74-.286-1.063a2.161 2.161 0 0 0-.764-.77 2.03 2.03 0 0 0-1.06-.285c-.386 0-.74.095-1.059.286-.319.19-.574.447-.764.769-.19.322-.286.677-.286 1.063 0 .387.095.74.286 1.06.19.319.445.574.764.764.32.19.673.286 1.06.286Zm0-1.08a.981.981 0 0 1-.733-.304 1.015 1.015 0 0 1-.295-.733 1 1 0 0 1 .295-.73c.196-.2.44-.299.733-.299.288 0 .53.1.73.3.2.198.299.442.299.729s-.1.531-.299.733a.985.985 0 0 1-.73.304Zm1.398-1.74v1.415h14.3a.69.69 0 0 0 .505-.207.687.687 0 0 0 .207-.505.677.677 0 0 0-.207-.497.687.687 0 0 0-.505-.206H7.71Z"/>
  </g>
  <defs>
    <clipPath id="a">
      <path fill="currentColor" d="M1.277 3.821h21.445v16.356H1.277z"/>
    </clipPath>
  </defs>
</svg>
