<svg xmlns="http://www.w3.org/2000/svg" width="24" height="24" fill="currentColor" viewBox="0 0 24 24">
  <path fill="currentColor" d="M17.853 4c.764 0 1.431.326 1.817.927.38.59.421 1.338.178 2.066l-.219.653a.686.686 0 0 1-1.3-.434l.218-.654c.142-.425.077-.723-.03-.89-.1-.155-.3-.297-.664-.297h-4.61L8.813 18.63h1.09a.686.686 0 0 1 0 1.371H5.818a.686.686 0 1 1 0-1.371h1.547l4.432-13.26H7.644c-.38 0-.827.163-1.233.472-.403.307-.714.722-.857 1.15l-.219.653a.685.685 0 1 1-1.3-.434l.218-.654c.243-.726.738-1.356 1.327-1.805C6.167 4.305 6.898 4 7.644 4h10.21Z"/>
</svg>
