<svg xmlns="http://www.w3.org/2000/svg" width="24" height="24" fill="currentColor" viewBox="0 0 24 24">
  <path fill="currentColor" d="M17.557 1.16c1.953-.71 3.806 1.487 2.431 3.254l-.017.022-5.924 7.198 3.491 3.491.028.034c.905 1.085.576 2.781-.774 3.36l-.008.004L6.512 22.81c-1.055.479-2.057.021-2.554-.712-.477-.704-.56-1.78.205-2.574l7.15-7.794-3.421-3.423c-.542-.542-.65-1.29-.52-1.892.13-.609.534-1.234 1.233-1.534l.01-.005 8.9-3.699.02-.009.022-.008ZM5.636 20.876l-.015.016-.016.015a.107.107 0 0 0-.012.015c0 .008.004.03.021.055.01.015.02.022.026.026a.13.13 0 0 0 .045-.014l.014-.006.014-.006 10.292-4.297a.11.11 0 0 0 .067-.084.174.174 0 0 0-.031-.14l-3.312-3.311-7.093 7.731ZM18.249 3.037 9.392 6.718v.001a.073.073 0 0 0-.026.024.235.235 0 0 0-.043.167l3.303 3.303 5.783-7.028a.21.21 0 0 0 .033-.055.049.049 0 0 0 .003-.018.08.08 0 0 0-.018-.045.116.116 0 0 0-.057-.041c-.014-.005-.05-.012-.121.011Z"/>
</svg>
