<svg xmlns="http://www.w3.org/2000/svg" width="24" height="24" fill="currentColor" viewBox="0 0 24 24">
  <path fill="currentColor" d="M15.188 9A6.188 6.188 0 1 0 2.812 9a6.188 6.188 0 0 0 12.376 0Zm1.124 0a7.313 7.313 0 1 1-14.625-.001A7.313 7.313 0 0 1 16.313 9Z"/>
  <path fill="currentColor" d="M21.188 15a6.188 6.188 0 1 0-12.376 0 6.188 6.188 0 0 0 12.376 0Zm1.125 0a7.313 7.313 0 1 1-14.626-.001A7.313 7.313 0 0 1 22.312 15Z"/>
  <path fill="currentColor" d="M11.09 8.838c.22-.22.576-.22.796 0l3.278 3.278a.562.562 0 1 1-.795.795L11.09 9.633a.562.562 0 0 1 0-.795Zm-2.253 2.25c.22-.22.575-.22.795 0l3.278 3.278a.562.562 0 1 1-.795.795l-3.278-3.278a.562.562 0 0 1 0-.795Z"/>
</svg>
