<svg xmlns="http://www.w3.org/2000/svg" width="24" height="24" fill="currentColor" viewBox="0 0 24 24">
  <path fill="currentColor" d="M12 1.593c1.675 0 3.126 1.14 4.114 2.922l6.06 10.91c.947 1.707 1.121 3.48.295 4.884-.826 1.404-2.458 2.11-4.409 2.11H12a.998.998 0 0 1-.135-.009H5.94c-1.955 0-3.589-.707-4.414-2.112-.824-1.405-.646-3.177.3-4.883l3.12-5.62 2.94-5.281c.988-1.781 2.44-2.921 4.114-2.921Zm0 2c-.675 0-1.574.465-2.366 1.892v.001l-2.94 5.28h-.001l-3.118 5.62c-.734 1.323-.671 2.306-.323 2.9.347.591 1.173 1.124 2.688 1.124H12c.045 0 .09.004.133.01h5.927c1.51 0 2.337-.532 2.686-1.125.327-.557.404-1.456-.193-2.656l-.128-.244-6.06-10.909c-.791-1.428-1.69-1.893-2.365-1.893Z"/>
  <path fill="currentColor" d="M11.563 12.491a1 1 0 0 1 1.014.08l9.44 6.61a1 1 0 1 1-1.147 1.637l-8.867-6.208-8.867 6.208a1 1 0 1 1-1.146-1.637l9.44-6.61.133-.08Z"/>
  <path fill="currentColor" d="M11 13.39V3a1 1 0 1 1 2 0v10.39a1 1 0 1 1-2 0Z"/>
</svg>
