<svg xmlns="http://www.w3.org/2000/svg" width="24" height="24" fill="currentColor" viewBox="0 0 24 24">
  <path fill="currentColor" d="M21 5.7C21 4.27 19.765 3 18.2 3h-.5C16.253 3 15 4.252 15 5.7v4.929c1.797-.353 3.188-.973 4.176-1.58l.01-.007C20.353 8.342 21 7.087 21 5.7Zm2 0c0 2.013-.953 3.958-2.785 5.058l-.001-.001c-1.416.87-3.45 1.719-6.095 2.036L13 12.927V5.7C13 3.148 15.148 1 17.7 1h.5C20.835 1 23 3.13 23 5.7Z"/>
  <path fill="currentColor" d="M21.002 10.277c-.103.076-.208.156-.32.234-1.259.867-3.1 1.793-5.58 2.244V18.3c0 1.465 1.17 2.7 2.7 2.7h.5c1.465 0 2.7-1.17 2.7-2.7v-8.023Zm2 8.023c0 2.67-2.166 4.7-4.7 4.7h-.5c-2.67 0-4.7-2.166-4.7-4.7v-7.28l.874-.112c2.572-.327 4.398-1.235 5.57-2.044a9.258 9.258 0 0 0 1.288-1.06 5.757 5.757 0 0 0 .36-.393L23.001 5v13.3ZM9 13.37c-1.798.353-3.188.974-4.176 1.582l-.01.006C3.647 15.658 3 16.913 3 18.3 3 19.747 4.252 21 5.7 21h.6C7.765 21 9 19.83 9 18.3v-4.93Zm2 4.93c0 2.67-2.166 4.7-4.7 4.7h-.6C3.148 23 1 20.852 1 18.3c0-1.887.838-3.714 2.452-4.841l.333-.216c1.416-.87 3.45-1.719 6.096-2.036L11 11.073V18.3Z"/>
  <path fill="currentColor" d="M9 5.7C9 4.27 7.765 3 6.2 3h-.5C4.252 3 3 4.252 3 5.7v8.025c.107-.079.219-.159.336-.239 1.273-.869 3.139-1.795 5.664-2.244V5.7ZM2.8 16.6l-.003.003.002-.003Zm8.2-3.618-.876.11c-2.625.328-4.476 1.238-5.66 2.047a9.189 9.189 0 0 0-1.296 1.06 5.722 5.722 0 0 0-.36.39c-.003.006-.007.008-.01.01L1 19V5.7C1 3.148 3.148 1 5.7 1h.5C8.835 1 11 3.13 11 5.7v7.282Z"/>
  <path fill="currentColor" d="M14.164 12.887c-.698.116-1.487.113-2.164.113-.723 0-1.334.003-1.836.087l-.328-1.973C10.534 10.998 11.323 11 12 11c.723 0 1.334-.002 1.836-.086l.328 1.973Z"/>
</svg>
