<svg xmlns="http://www.w3.org/2000/svg" width="24" height="24" fill="currentColor" viewBox="0 0 24 24">
  <path fill="currentColor" d="M18.403 2.998c-.757-.754-2.077-.75-2.828.005l-1.784 1.791L11.585 7H7a.998.998 0 0 0-.939.658l-4 11c-.133.365-.042.774.232 1.05l2 2a.997.997 0 0 0 1.05.231l11-4A.998.998 0 0 0 17 17v-4.586l2.208-2.208L21 8.41c.378-.378.586-.88.585-1.415 0-.535-.209-1.038-.588-1.415L18.403 3Zm-3.11 8.295a.996.996 0 0 0-.294.707v4.3L5.75 19.663l4.671-4.67c.026 0 .052.007.078.007A1.5 1.5 0 1 0 9 13.5c0 .026.007.052.008.078l-4.67 4.671L7.698 9H12c.266 0 .52-.105.707-.293L14.5 6.914 17.085 9.5l-1.793 1.793Zm3.205-3.208L15.912 5.5l1.08-1.084 2.592 2.581-1.086 1.09Z"/>
</svg>
