<svg xmlns="http://www.w3.org/2000/svg" width="24" height="24" fill="currentColor" viewBox="0 0 24 24">
<path fill="currentColor" d="M21.915 14.9766L20.0205 13.082C19.2721 12.3338 18.059 12.334 17.3105 13.082L15.7256 14.666L17.8623 16.8027C18.1552 17.0956 18.1552 17.5704 17.8623 17.8633C17.5694 18.1562 17.0947 18.1562 16.8018 17.8633L10.6875 11.749C9.939 11.0005 8.72507 11.0005 7.97656 11.749L2.08203 17.6436V20C2.08221 21.0584 2.94059 21.916 3.99902 21.916H19.999C21.0573 21.9158 21.9149 21.0583 21.915 20V14.9766ZM14.6787 5.91602C15.0928 5.91602 15.4285 6.25196 15.4287 6.66602C15.4287 7.08023 15.0929 7.41601 14.6787 7.41602H14.665C14.251 7.41584 13.915 7.08012 13.915 6.66602C13.9152 6.25206 14.2511 5.91619 14.665 5.91602H14.6787ZM21.915 4C21.915 2.94156 21.0574 2.08318 19.999 2.08301H3.99902C2.94048 2.08301 2.08203 2.94145 2.08203 4V15.5225L6.91602 10.6885C8.25031 9.35419 10.4138 9.35419 11.748 10.6885L14.665 13.6055L16.249 12.0215C17.5832 10.6873 19.7467 10.6874 21.0811 12.0215L21.915 12.8555V4ZM23.415 20C23.4149 21.8867 21.8857 23.4158 19.999 23.416H3.99902C2.11216 23.416 0.582207 21.8868 0.582031 20V4C0.582031 2.11303 2.11205 0.583008 3.99902 0.583008H19.999C21.8858 0.583183 23.415 2.11314 23.415 4V20Z"/>
</svg>
