<svg xmlns="http://www.w3.org/2000/svg" width="24" height="24" fill="currentColor" viewBox="0 0 24 24">
  <g clip-path="url(#a)">
    <path fill="currentColor" d="m2.85 1.785 11.141 3.177a7.428 7.428 0 0 1 5.207 9.442l2.518 2.518.954.955-3.818 3.818-.954.953-3.447-3.446h-.002a7.417 7.417 0 0 1-2.326.371h-.015a7.493 7.493 0 0 1-1.551-.166 7.354 7.354 0 0 1-2.002-.747 7.434 7.434 0 0 1-3.703-5.004L1.324 1.35l1.527.435Zm8.399 8.538a2.025 2.025 0 1 1-.954.956L3.674 4.66l2.473 8.625.014.049.01.05a6.079 6.079 0 0 0 5.951 4.842 5.54 5.54 0 0 0 1.904-.305l.79-.26 3.082 3.081 2.863-2.864-3.099-3.099.25-.783a5.54 5.54 0 0 0 .284-1.846 6.078 6.078 0 0 0-4.544-5.88l-.015-.004-.016-.005-9.003-2.567 6.631 6.63Z"/>
  </g>
  <defs>
    <clipPath id="a">
      <path fill="currentColor" d="M1.2 1.2h21.6v21.6H1.2z"/>
    </clipPath>
  </defs>
</svg>
