<svg xmlns="http://www.w3.org/2000/svg" width="24" height="24" fill="currentColor" viewBox="0 0 24 24">
  <path fill="currentColor" fill-rule="evenodd" d="M14.25 21.748a1.5 1.5 0 0 0 1.06-.44l6.44-6.439a1.503 1.503 0 0 0 .324-1.634 1.505 1.505 0 0 0-.325-.487l-2.354-2.353-2.041-5.444a1.501 1.501 0 0 0-1.158-.953L3.145 1.823h-.007l-.015-.004a.754.754 0 0 0-.11-.008h-.038a.748.748 0 0 0-.38.117.751.751 0 0 0-.226.224.752.752 0 0 0-.056.107c-.007.014-.012.029-.017.044a.75.75 0 0 0-.036.38l2.18 13.072a1.501 1.501 0 0 0 .952 1.158l5.441 2.041 2.356 2.355a1.5 1.5 0 0 0 1.06.439Zm-8.33-6.24L4.123 4.747l4.44 4.44a2.625 2.625 0 1 0 1.06-1.062l-4.44-4.44 10.765 1.794 1.928 5.142-6.816 6.818-5.142-1.93Zm4.954-3.95a1.125 1.125 0 1 1 0-2.25 1.125 1.125 0 0 1 0 2.25Zm1.436 6.752 6.44-6.44 1.939 1.939-6.44 6.439-1.94-1.938Z" clip-rule="evenodd"/>
</svg>
