<svg xmlns="http://www.w3.org/2000/svg" width="24" height="24" fill="currentColor" viewBox="0 0 24 24">
  <path fill="currentColor" d="M14.988 5.305a.751.751 0 0 1 .98-.406 7.752 7.752 0 0 1 4.52 9.166 7.75 7.75 0 0 1-3.18 4.439 7.747 7.747 0 0 1-3.406 1.25l.715.716a.75.75 0 1 1-1.06 1.06l-2-2c-.019-.018-.033-.04-.05-.06l-.02-.023a.751.751 0 0 1-.06-.098l-.014-.026a.754.754 0 0 1-.037-.096c-.005-.015-.011-.03-.015-.047a.745.745 0 0 1-.018-.105l-.004-.048-.002-.027c0-.014.003-.027.004-.041a.709.709 0 0 1 .004-.058l.002-.012a.781.781 0 0 1 .038-.149.748.748 0 0 1 .04-.088c.008-.015.015-.03.024-.044a.75.75 0 0 1 .06-.082c.01-.01.017-.022.027-.032l.02-.024 2-2a.75.75 0 1 1 1.06 1.06l-.713.713a6.248 6.248 0 0 0 1.49-11.958.751.751 0 0 1-.405-.98ZM9.384 2.47a.75.75 0 0 1 1.061 0l2 2c.015.015.027.032.04.048.01.013.022.025.031.039.02.026.036.054.052.083.007.013.015.026.021.04a.74.74 0 0 1 .038.096l.011.04a.742.742 0 0 1 .018.098c.002.02.005.039.006.059l.003.027c0 .006-.003.013-.003.02a.765.765 0 0 1-.005.078l-.005.024-.007.04a.752.752 0 0 1-.073.191l-.02.037a.743.743 0 0 1-.054.075c-.012.014-.023.03-.035.043l-.018.022-2 2a.75.75 0 0 1-1.06-1.06l.712-.714a6.25 6.25 0 0 0-1.489 11.959.751.751 0 0 1-.574 1.386 7.752 7.752 0 0 1-1.34-13.605 7.746 7.746 0 0 1 3.404-1.252l-.714-.714a.75.75 0 0 1 0-1.06Z"/>
</svg>
