<svg xmlns="http://www.w3.org/2000/svg" width="24" height="24" fill="currentColor" viewBox="0 0 24 24">
  <path fill="currentColor" d="M21.042 10.988a.75.75 0 0 1 .75.75 9.77 9.77 0 0 1-8.104 9.625l1.075 1.076a.75.75 0 0 1-1.06 1.06l-2.211-2.21a.75.75 0 0 1 0-1.062l2.21-2.21a.75.75 0 0 1 1.061 1.06l-.666.665a8.268 8.268 0 0 0 5.087-3.869 8.27 8.27 0 0 0 1.108-4.135.75.75 0 0 1 .75-.75ZM4.152 6.481a.747.747 0 0 1 .805.762l1.13 2.536a.75.75 0 0 1-1.37.61l-.55-1.234a8.27 8.27 0 0 0 3.72 9.745.75.75 0 0 1-.75 1.3A9.77 9.77 0 0 1 2.75 8.662l-1.17.523a.75.75 0 0 1-.61-1.37l2.856-1.273a.746.746 0 0 1 .327-.062Zm7.87-4.512a9.772 9.772 0 0 1 7.336 3.317l.127-1.244a.75.75 0 0 1 1.492.152l-.316 3.11a.75.75 0 0 1-.807.67.749.749 0 0 1-.196-.018l-2.93-.298a.75.75 0 0 1 .152-1.492l1.376.14A8.27 8.27 0 0 0 7.887 4.577a.75.75 0 0 1-.75-1.3 9.771 9.771 0 0 1 4.885-1.308Z"/>
</svg>
