<svg xmlns="http://www.w3.org/2000/svg" width="24" height="24" fill="currentColor" viewBox="0 0 24 24">
  <path fill="currentColor" d="M15.099 4.2a.1.1 0 0 0-.101-.1h-6a.1.1 0 0 0-.1.1v15.6a.1.1 0 0 0 .1.1h6a.1.1 0 0 0 .1-.1V4.2Zm1 15.6a1.1 1.1 0 0 1-1.101 1.1h-6a1.1 1.1 0 0 1-1.1-1.1V4.2a1.1 1.1 0 0 1 1.1-1.1h6a1.1 1.1 0 0 1 1.1 1.1v15.6Z"/>
  <path fill="currentColor" d="M15.6 6.1a.5.5 0 1 1 0 1H12a.5.5 0 0 1 0-1h3.6Zm0 2.7a.5.5 0 0 1 0 1h-2.4a.5.5 0 0 1 0-1h2.4Zm0 2.7a.5.5 0 1 1 0 1H12a.5.5 0 0 1 0-1h3.6Zm0 2.7a.5.5 0 0 1 0 1h-2.4a.5.5 0 0 1 0-1h2.4Zm0 2.7a.5.5 0 1 1 0 1H12a.5.5 0 0 1 0-1h3.6Z"/>
</svg>
