<svg xmlns="http://www.w3.org/2000/svg" width="24" height="24" fill="currentColor" viewBox="0 0 24 24">
  <path fill="currentColor" d="M15.694 15.889c0-.69-.56-1.25-1.25-1.25H9.556c-.69 0-1.25.56-1.25 1.25v3.361h7.388v-3.361ZM6.806 6.444V4.76A2.249 2.249 0 0 0 4.75 7v10a2.25 2.25 0 0 0 2.056 2.24v-3.351a2.75 2.75 0 0 1 2.75-2.75h4.888a2.75 2.75 0 0 1 2.75 2.75v3.35A2.248 2.248 0 0 0 19.25 17V9.687c0-.596-.237-1.17-.66-1.591l-2.686-2.687a2.252 2.252 0 0 0-1.591-.659H8.306v1.694c0 .69.56 1.25 1.25 1.25h5.111a.75.75 0 0 1 0 1.5H9.556a2.75 2.75 0 0 1-2.75-2.75ZM3.25 7A3.75 3.75 0 0 1 7 3.25h7.313c.994 0 1.949.395 2.652 1.099l2.686 2.686a3.752 3.752 0 0 1 1.099 2.652V17A3.75 3.75 0 0 1 17 20.75H7A3.75 3.75 0 0 1 3.25 17V7Z"/>
</svg>
