<svg xmlns="http://www.w3.org/2000/svg" width="24" height="24" fill="currentColor" viewBox="0 0 24 24">
  <path fill="currentColor" d="M7.5 7.125a1.875 1.875 0 1 0-3.75 0 1.875 1.875 0 0 0 3.75 0Zm1.5 0a3.375 3.375 0 1 1-6.75 0 3.375 3.375 0 0 1 6.75 0Zm-1.5 9.75a1.875 1.875 0 1 0-3.75 0 1.875 1.875 0 0 0 3.75 0Zm1.5 0a3.375 3.375 0 1 1-6.75 0 3.375 3.375 0 0 1 6.75 0Z"/>
  <path fill="currentColor" d="M12.325 11.381a.75.75 0 0 1 .846 1.238l-4.958 3.393a.75.75 0 0 1-.848-1.239l4.96-3.392Zm9.001-6.158a.75.75 0 1 1 .847 1.238l-6.343 4.34a.75.75 0 0 1-.848-1.237l6.344-4.341Z"/>
  <path fill="currentColor" d="M7.17 8.183a.75.75 0 0 1 1.043-.195l13.958 9.55a.75.75 0 0 1-.846 1.239L7.364 9.226a.75.75 0 0 1-.195-1.043Z"/>
</svg>
