<svg xmlns="http://www.w3.org/2000/svg" width="24" height="24" fill="currentColor" viewBox="0 0 24 24">
  <path fill="currentColor" d="M6.75 12.75H5.358c-.766 0-1.11.158-1.279.328-.17.17-.329.517-.329 1.29v4.274c0 .767.158 1.11.328 1.28.17.17.513.328 1.28.328h4.275c.772 0 1.118-.159 1.289-.33.17-.169.328-.512.328-1.278V17.25H9.858c-.916 0-1.753-.18-2.341-.77-.588-.59-.767-1.428-.767-2.347V12.75Zm1.5 1.383c0 .772.159 1.118.33 1.289.148.149.428.289 1.01.321l.268.007h4.275c.772 0 1.117-.159 1.288-.33.17-.17.329-.515.329-1.287V12.75h-1.392c-.915 0-1.753-.18-2.341-.77-.588-.59-.767-1.428-.767-2.347V8.25H9.858c-.767 0-1.11.158-1.28.328-.17.17-.328.513-.328 1.28v4.275Zm4.5-4.5c0 .772.159 1.118.33 1.289.148.149.428.289 1.01.321l.268.007h4.275c.772 0 1.117-.159 1.288-.33.17-.17.329-.515.329-1.287V5.358c0-.766-.158-1.11-.328-1.279-.17-.17-.517-.329-1.29-.329h-4.274c-.767 0-1.11.158-1.28.328-.17.17-.328.513-.328 1.28v4.275Zm9 0c0 .92-.179 1.759-.769 2.348-.59.59-1.429.769-2.348.769H17.25v1.383c0 .92-.179 1.759-.769 2.348-.59.59-1.429.769-2.348.769H12.75v1.392c0 .916-.18 1.753-.77 2.341-.59.588-1.428.767-2.347.767H5.358c-.916 0-1.752-.18-2.34-.768-.589-.588-.768-1.424-.768-2.34v-4.275c0-.92.179-1.758.767-2.348.588-.59 1.425-.769 2.341-.769H6.75V9.858c0-.916.18-1.752.768-2.34.588-.589 1.424-.768 2.34-.768h1.392V5.358c0-.916.18-1.752.768-2.34.588-.589 1.424-.768 2.34-.768h4.275c.92 0 1.758.179 2.348.767.59.588.769 1.425.769 2.341v4.275Z"/>
</svg>
