<svg width="24" height="24" viewBox="0 0 24 24" fill="none" xmlns="http://www.w3.org/2000/svg">
<path d="M3.76169 20.9996C5.07432 21.2947 6.41634 21.4389 7.76169 21.4296C11.4292 21.5597 14.9991 20.2331 17.6917 17.7396C23.0017 12.3696 21.0617 4.10962 21.0017 3.75962C20.9605 3.57373 20.8671 3.40346 20.7325 3.26883C20.5978 3.1342 20.4276 3.04081 20.2417 2.99962C18.9287 2.70651 17.5869 2.56227 16.2417 2.56962C14.4188 2.50007 12.6002 2.79209 10.8908 3.42885C9.18132 4.0656 7.61485 5.03448 6.28169 6.27962C0.941688 11.6296 2.94169 19.8896 3.00169 20.2396C3.04287 20.4255 3.13627 20.5958 3.2709 20.7304C3.40553 20.865 3.5758 20.9584 3.76169 20.9996ZM7.70169 7.69962C10.0116 5.58618 13.0634 4.47183 16.1917 4.59962C17.197 4.59697 18.2007 4.68061 19.1917 4.84962C19.5017 6.71962 20.1017 12.5196 16.3317 16.2896C14.0055 18.4169 10.9309 19.5352 7.78169 19.3996C6.79967 19.4003 5.8194 19.3166 4.85169 19.1496C4.53169 17.2696 3.93169 11.4796 7.70169 7.69962Z" fill="currentColor"/>
<path d="M7.29169 15.2896L8.71169 16.7096L10.5017 14.9196L12.2917 16.7096L13.7117 15.2896L11.9117 13.4996L13.5017 11.9096L15.2917 13.7096L16.7117 12.2896L14.9117 10.4996L16.7117 8.70961L15.2917 7.28961L13.5017 9.08961L11.7117 7.28961L10.2917 8.70961L12.0917 10.4996L10.5017 12.0896L8.71169 10.2896L7.29169 11.7096L9.09169 13.4996L7.29169 15.2896Z" fill="currentColor"/>
</svg>
