<svg width="24" height="24" viewBox="0 0 24 24" fill="none" xmlns="http://www.w3.org/2000/svg">
<path d="M11.9906 2.00001C10.6762 1.99776 9.3745 2.25627 8.16074 2.76059C6.94699 3.2649 5.84534 4.005 4.91959 4.93801C1.02159 8.83601 1.02159 15.181 4.91959 19.081C6.81459 20.976 9.32459 22.019 11.9906 22.019C14.6566 22.019 17.1676 20.976 19.0616 19.081C22.9606 15.182 22.9606 8.83701 19.0616 4.93801C18.1358 4.005 17.0342 3.2649 15.8204 2.76059C14.6067 2.25627 13.3049 1.99776 11.9906 2.00001ZM17.6476 17.667C16.5992 18.7189 15.2773 19.4564 13.8316 19.796L13.8306 19.759C13.8289 18.9864 13.9717 18.2202 14.2516 17.5L12.3886 16.771C11.9876 17.8023 11.7999 18.9041 11.8366 20.01C9.76713 19.9745 7.79303 19.1337 6.33359 17.666C4.87142 16.2039 4.03515 14.2305 4.00159 12.163C4.08159 12.165 4.16159 12.168 4.24159 12.168C5.26375 12.1708 6.27733 11.9815 7.22959 11.61L6.49959 9.74801C5.77221 10.0285 4.99816 10.1684 4.21859 10.16C4.55445 8.7179 5.28706 7.39851 6.33359 6.35101C7.42008 5.25944 8.7998 4.50636 10.3056 4.18301C10.296 4.84836 10.1754 5.50743 9.94859 6.13301L11.8296 6.81401C12.1462 5.94858 12.3093 5.03453 12.3116 4.11301C12.3116 4.08001 12.3076 4.04801 12.3066 4.01501C14.3196 4.09401 16.2066 4.91101 17.6486 6.35101C19.0719 7.7755 19.9024 9.68654 19.9726 11.699C19.0227 11.688 18.0786 11.8482 17.1856 12.172L17.8696 14.052C18.4899 13.8244 19.1439 13.7023 19.8046 13.691C19.4856 15.1972 18.7363 16.5784 17.6476 17.667Z" fill="currentColor"/>
<path d="M14.1126 14.13C13.7689 14.4732 13.4588 14.8486 13.1866 15.251L14.8426 16.371C15.0426 16.075 15.2726 15.797 15.5256 15.545C15.8807 15.1904 16.2761 14.8786 16.7036 14.616L15.6546 12.913C15.0949 13.257 14.5773 13.6655 14.1126 14.13ZM8.45664 8.474C8.20291 8.7264 7.92603 8.9544 7.62964 9.155L8.74864 10.813C9.15095 10.5403 9.52662 10.2303 9.87064 9.887C10.3345 9.42175 10.7429 8.9043 11.0876 8.345L9.38464 7.297C9.12159 7.7237 8.8102 8.11865 8.45664 8.474Z" fill="currentColor"/>
</svg>
