<svg width="24" height="24" viewBox="0 0 24 24" fill="none" xmlns="http://www.w3.org/2000/svg">
<path d="M4.92816 19.0712C6.82316 20.9662 9.33316 22.0092 11.9992 22.0092C14.6652 22.0092 17.1762 20.9662 19.0702 19.0712C22.9692 15.1722 22.9692 8.82823 19.0702 4.92823C17.1762 3.03423 14.6642 1.99023 11.9992 1.99023C9.33416 1.99023 6.82216 3.03423 4.92816 4.92923C1.02916 8.82723 1.02916 15.1722 4.92816 19.0712ZM12.3082 4.00623C13.9783 4.06635 15.5865 4.65376 16.9022 5.68423L11.9992 10.5862L10.5392 9.12624C11.7002 7.64723 12.3312 5.81823 12.3082 4.00623ZM9.10916 7.69623L7.09716 5.68423C8.04172 4.94384 9.14203 4.42754 10.3152 4.17423C10.3002 5.41023 9.87016 6.65123 9.10916 7.69623ZM7.68516 9.10023C6.66649 9.79617 5.45982 10.1649 4.22616 10.1572C4.486 9.0447 4.98336 8.00153 5.68416 7.09923L7.68516 9.10023ZM4.01016 12.1462C4.08716 12.1482 4.16416 12.1602 4.24116 12.1602C6.00085 12.1658 7.7139 11.5947 9.11816 10.5342L10.5852 12.0002L5.68416 16.9012C4.62652 15.539 4.03914 13.8706 4.01016 12.1462ZM16.3042 14.8912C17.3462 14.1332 18.5842 13.7032 19.8122 13.6852C19.562 14.8567 19.0502 15.9564 18.3152 16.9022L16.3042 14.8912ZM16.9012 18.3162C15.9994 19.0211 14.9559 19.5226 13.8422 19.7862C13.8309 18.548 14.1998 17.3361 14.8992 16.3142L16.9012 18.3162ZM11.8572 20.0022C10.1287 19.9747 8.4567 19.3826 7.09616 18.3162L11.9992 13.4142L13.4622 14.8772C12.3592 16.3212 11.8032 18.1432 11.8572 20.0022ZM19.9812 11.6922C18.1742 11.6742 16.3482 12.3022 14.8732 13.4602L13.4132 12.0002L18.3142 7.09923C19.3371 8.41788 19.9202 10.0244 19.9812 11.6922Z" fill="currentColor"/>
</svg>
