<svg width="24" height="24" viewBox="0 0 24 24" fill="none" xmlns="http://www.w3.org/2000/svg">
<path d="M19 8.00129H15V4.99929C15.0033 4.60724 14.9276 4.21854 14.7775 3.85638C14.6273 3.49421 14.4057 3.16599 14.126 2.89129C13.8189 2.57516 13.4447 2.33205 13.031 2.17991C12.6173 2.02777 12.1748 1.97049 11.736 2.01229C10.202 2.14429 9 3.50829 9 5.11729V8.00029H5C3.897 8.00029 3 8.89729 3 10.0003V20.0003C3 21.1033 3.897 22.0003 5 22.0003H19C20.103 22.0003 21 21.1033 21 20.0003V10.0013C21 8.89829 20.103 8.00129 19 8.00129ZM5 10.0003H11V5.11729C11 4.54729 11.407 4.04729 12.002 4.00029C12.268 4.00029 12.514 4.10329 12.714 4.30729C12.8058 4.39746 12.8784 4.50522 12.9276 4.62413C12.9767 4.74303 13.0013 4.87064 13 4.99929V10.0003H13.995L14 10.0013H19V12.0003H5V10.0003ZM5 20.0003V14.0003H19L19.002 20.0003H5Z" fill="currentColor"/>
</svg>
