<svg width="24" height="24" viewBox="0 0 24 24" fill="none" xmlns="http://www.w3.org/2000/svg">
<path d="M16.895 6.51897L19.708 3.70697L18.294 2.29297L15.448 5.13897C15.2171 4.97213 14.9756 4.82048 14.725 4.68497C13.8867 4.23661 12.9507 4.00203 12 4.00203C11.0493 4.00203 10.1133 4.23661 9.275 4.68497C9.025 4.81697 8.787 4.97197 8.553 5.13797L5.707 2.29297L4.293 3.70697L7.106 6.51897C6.52036 7.26461 6.06402 8.10326 5.756 8.99997H2V11H4.307C4.242 11.495 4.2 11.997 4.2 12.5C4.2 13.007 4.242 13.513 4.307 14.011H2V16.011H4.753C4.766 16.05 4.774 16.091 4.787 16.129C4.975 16.684 5.208 17.222 5.482 17.729C5.526 17.81 5.577 17.884 5.623 17.963L3.293 20.293L4.707 21.707L6.817 19.596C7.40541 20.2534 8.10554 20.8015 8.885 21.215C9.364 21.468 9.867 21.664 10.381 21.795C11.4427 22.0676 12.5561 22.068 13.618 21.796C14.1378 21.6622 14.6399 21.4676 15.114 21.216C15.579 20.97 16.028 20.666 16.447 20.312C16.705 20.094 16.947 19.85 17.181 19.596L19.292 21.707L20.706 20.293L18.376 17.963C18.423 17.883 18.474 17.808 18.518 17.727C18.791 17.222 19.025 16.684 19.212 16.128C19.225 16.089 19.233 16.049 19.246 16.01H22V14.01H19.692C19.757 13.511 19.799 13.006 19.799 12.499C19.799 11.996 19.757 11.494 19.693 10.999H22V8.99997H18.244C17.9359 8.10349 17.48 7.2649 16.895 6.51897ZM8.681 7.74797C9.126 7.18997 9.641 6.75497 10.209 6.45397C10.7592 6.15735 11.3744 6.00206 11.9995 6.00206C12.6246 6.00206 13.2398 6.15735 13.79 6.45397C14.3839 6.77545 14.9048 7.21636 15.32 7.74897C15.619 8.12197 15.86 8.54897 16.073 8.99997H7.927C8.141 8.54897 8.381 8.12097 8.681 7.74797ZM17.8 12.5C17.8 13.022 17.758 13.544 17.674 14.053C17.595 14.543 17.475 15.026 17.319 15.489C17.1695 15.9334 16.9825 16.3642 16.76 16.777C16.5486 17.1677 16.3033 17.5391 16.027 17.887C15.76 18.22 15.467 18.523 15.158 18.785C14.848 19.046 14.519 19.269 14.179 19.449C13.839 19.629 13.484 19.766 13.122 19.859C13.082 19.869 13.04 19.873 13 19.882V14H11V19.881C10.96 19.872 10.918 19.868 10.878 19.858C10.517 19.765 10.161 19.628 9.821 19.448C9.481 19.268 9.152 19.045 8.843 18.784C8.52426 18.5132 8.23256 18.2121 7.972 17.885C7.69564 17.5383 7.45099 17.1674 7.241 16.777C7.01839 16.3638 6.83105 15.9326 6.681 15.488C6.52334 15.0191 6.40428 14.5382 6.325 14.05C6.16065 13.0401 6.15862 12.0105 6.319 11H17.68C17.759 11.491 17.8 11.995 17.8 12.5Z" fill="currentColor"/>
</svg>
