<svg width="24" height="24" viewBox="0 0 24 24" fill="none" xmlns="http://www.w3.org/2000/svg">
<path d="M2.05955 14.6797C2.12846 14.9321 2.29361 15.1476 2.51955 15.2796L4.42955 16.3896V18.5896C4.42955 18.8549 4.53491 19.1092 4.72244 19.2968C4.90998 19.4843 5.16433 19.5896 5.42955 19.5896H7.62955L8.73955 21.4996C8.82681 21.6508 8.9521 21.7765 9.10297 21.8642C9.25384 21.9519 9.42504 21.9986 9.59955 21.9996C9.77904 21.9996 9.95519 21.9512 10.1096 21.8596L12.0096 20.7596L13.9196 21.8596C14.0331 21.9262 14.1586 21.9697 14.289 21.9876C14.4194 22.0055 14.552 21.9975 14.6793 21.964C14.8066 21.9306 14.926 21.8724 15.0307 21.7927C15.1354 21.713 15.2234 21.6134 15.2896 21.4996L16.3896 19.5896H18.5896C18.8548 19.5896 19.1091 19.4843 19.2967 19.2968C19.4842 19.1092 19.5896 18.8549 19.5896 18.5896V16.3896L21.4996 15.2796C21.7283 15.1477 21.8956 14.9307 21.9649 14.6759C22.0342 14.4211 21.9999 14.1493 21.8696 13.9197L20.7596 11.9997L21.8696 10.0897C21.9999 9.86003 22.0342 9.58817 21.9649 9.33339C21.8956 9.0786 21.7283 8.86157 21.4996 8.72965L19.5896 7.62965V5.42965C19.5896 5.16443 19.4842 4.91008 19.2967 4.72254C19.1091 4.53501 18.8548 4.42965 18.5896 4.42965H16.3896L15.2896 2.51965C15.1551 2.29162 14.9358 2.1262 14.6796 2.05965C14.5525 2.02551 14.42 2.01678 14.2896 2.03394C14.1592 2.0511 14.0334 2.09382 13.9196 2.15965L11.9996 3.25965L10.0996 2.15965C9.87114 2.02844 9.60019 1.99265 9.34554 2.06005C9.0909 2.12746 8.87313 2.29262 8.73955 2.51965L7.62955 4.42965H5.42955C5.16433 4.42965 4.90998 4.53501 4.72244 4.72254C4.53491 4.91008 4.42955 5.16443 4.42955 5.42965V7.62965L2.52955 8.72965C2.41496 8.79498 2.31443 8.88233 2.23375 8.98668C2.15306 9.09103 2.09382 9.21031 2.05943 9.33765C2.02504 9.46499 2.01618 9.59787 2.03336 9.72865C2.05055 9.85943 2.09343 9.98552 2.15955 10.0997L3.25955 11.9997L2.15955 13.9096C2.09239 14.0248 2.04894 14.1523 2.03177 14.2845C2.01459 14.4168 2.02404 14.5511 2.05955 14.6797ZM5.27955 11.5097L4.38955 9.99965L5.93955 9.09965C6.08883 9.01114 6.2125 8.88531 6.29842 8.73453C6.38433 8.58374 6.42952 8.41319 6.42955 8.23965V6.42965H8.20955C8.38576 6.43035 8.55903 6.38447 8.7118 6.29667C8.86458 6.20887 8.99145 6.08225 9.07955 5.92965L9.99955 4.38965L11.5396 5.27965C11.6916 5.36742 11.864 5.41362 12.0396 5.41362C12.2151 5.41362 12.3875 5.36742 12.5396 5.27965L14.0896 4.38965L14.9996 5.92965C15.0877 6.08225 15.2145 6.20887 15.3673 6.29667C15.5201 6.38447 15.6933 6.43035 15.8696 6.42965H17.6396V8.20965C17.6406 8.38416 17.6873 8.55536 17.775 8.70623C17.8627 8.85711 17.9884 8.98239 18.1396 9.06965L19.6796 9.96965L18.7896 11.5097C18.7018 11.6617 18.6556 11.8341 18.6556 12.0097C18.6556 12.1852 18.7018 12.3576 18.7896 12.5097L19.6796 14.0497L18.1396 14.9496C17.9884 15.0369 17.8627 15.1622 17.775 15.3131C17.6873 15.4639 17.6406 15.6351 17.6396 15.8097V17.5897H15.8096C15.635 17.5907 15.4638 17.6374 15.313 17.7251C15.1621 17.8128 15.0368 17.9385 14.9496 18.0896L14.0596 19.6296L12.5096 18.7396C12.3575 18.6519 12.1851 18.6057 12.0096 18.6057C11.834 18.6057 11.6616 18.6519 11.5096 18.7396L9.99955 19.6296L9.10955 18.0896C9.02145 17.937 8.89458 17.8104 8.74181 17.7226C8.58903 17.6348 8.41576 17.589 8.23955 17.5897H6.42955V15.8097C6.42114 15.6447 6.37198 15.4843 6.28647 15.343C6.20097 15.2016 6.08178 15.0837 5.93955 14.9997L4.38955 14.0997L5.27955 12.5597C5.3769 12.4018 5.42845 12.2201 5.42845 12.0346C5.42845 11.8492 5.3769 11.6675 5.27955 11.5097Z" fill="currentColor"/>
</svg>
