<svg width="24" height="24" viewBox="0 0 24 24" fill="none" xmlns="http://www.w3.org/2000/svg">
<path d="M12.9986 10.551V9.873C13.8568 9.65053 14.6169 9.14959 15.1598 8.44869C15.7027 7.7478 15.9977 6.88657 15.9986 6C15.9986 3.794 14.2046 2 11.9986 2C9.79256 2 7.99856 3.794 7.99856 6H9.99856C9.99856 4.897 10.8956 4 11.9986 4C13.1016 4 13.9986 4.897 13.9986 6C13.9986 7.103 13.1016 8 11.9986 8C11.7333 8 11.479 8.10536 11.2915 8.29289C11.1039 8.48043 10.9986 8.73478 10.9986 9V10.551L2.33356 18.253C2.18264 18.388 2.07622 18.5657 2.02836 18.7624C1.9805 18.9592 1.99344 19.1659 2.06548 19.3551C2.13753 19.5444 2.26528 19.7073 2.43187 19.8225C2.59846 19.9376 2.79605 19.9995 2.99856 20H20.9986C21.2012 19.9995 21.3989 19.9376 21.5656 19.8223C21.7323 19.707 21.86 19.5439 21.932 19.3545C22.004 19.165 22.0167 18.9582 21.9686 18.7614C21.9205 18.5645 21.8138 18.3869 21.6626 18.252L12.9986 10.551ZM5.62856 18L11.9986 12.338L18.3686 18H5.62856Z" fill="currentColor"/>
</svg>
