<svg width="24" height="24" viewBox="0 0 24 24" fill="none" xmlns="http://www.w3.org/2000/svg">
<path d="M7.37547 16.7812L8.62547 15.2192L4.60147 12.0002L8.62547 8.78123L7.37547 7.21923L2.37547 11.2192C2.25831 11.3129 2.16374 11.4317 2.09874 11.5669C2.03375 11.7021 2 11.8502 2 12.0002C2 12.1502 2.03375 12.2983 2.09874 12.4335C2.16374 12.5687 2.25831 12.6875 2.37547 12.7812L7.37547 16.7812ZM16.6255 7.21923L15.3755 8.78123L19.3995 12.0002L15.3755 15.2192L16.6255 16.7812L21.6255 12.7812C21.7426 12.6875 21.8372 12.5687 21.9022 12.4335C21.9672 12.2983 22.0009 12.1502 22.0009 12.0002C22.0009 11.8502 21.9672 11.7021 21.9022 11.5669C21.8372 11.4317 21.7426 11.3129 21.6255 11.2192L16.6255 7.21923ZM14.9765 3.21623L10.9765 21.2162L9.02347 20.7822L13.0235 2.78223L14.9765 3.21623Z" fill="currentColor"/>
</svg>
