<svg width="24" height="24" viewBox="0 0 24 24" fill="none" xmlns="http://www.w3.org/2000/svg">
<path d="M8.99837 22H9.99837V20H9.00937C8.70137 19.994 5.99837 19.827 5.99837 16C5.99837 14.007 5.33337 12.754 4.49638 12C5.33337 11.246 5.99837 9.993 5.99837 8C5.99837 4.173 8.70138 4.006 8.99837 4H9.99837V2H8.99638C7.26737 2.004 3.99837 3.264 3.99837 8C3.99837 10.8 2.32037 10.99 1.98438 11L1.99838 13C2.08038 13 3.99837 13.034 3.99837 16C3.99837 20.736 7.26737 21.996 8.99837 22ZM21.9984 11C21.9164 11 19.9984 10.966 19.9984 8C19.9984 3.264 16.7294 2.004 14.9984 2H13.9984V4H14.9874C15.2954 4.006 17.9984 4.173 17.9984 8C17.9984 9.993 18.6634 11.246 19.5004 12C18.6634 12.754 17.9984 14.007 17.9984 16C17.9984 19.827 15.2954 19.994 14.9984 20H13.9984V22H15.0004C16.7294 21.996 19.9984 20.736 19.9984 16C19.9984 13.2 21.6764 13.01 22.0124 13L21.9984 11Z" fill="currentColor"/>
</svg>
