<svg width="24" height="24" viewBox="0 0 24 24" fill="none" xmlns="http://www.w3.org/2000/svg">
<path d="M21.5981 11.0636C21.4777 10.9728 21.3385 10.9102 21.1907 10.8804C21.0428 10.8506 20.8902 10.8545 20.7441 10.8916C20.5017 10.9593 20.2517 10.9956 20.0001 10.9996C18.3461 10.9996 17.0001 9.65363 16.9971 8.06262C17.0021 8.02863 17.0131 7.92663 17.0141 7.89263C17.0206 7.73629 16.9903 7.58061 16.9255 7.43815C16.8608 7.2957 16.7635 7.17046 16.6414 7.07254C16.5194 6.97463 16.376 6.90679 16.2229 6.87449C16.0698 6.8422 15.9113 6.84635 15.7601 6.88663C15.5127 6.95712 15.2572 6.9951 15.0001 6.99963C13.3461 6.99963 12.0001 5.65363 12.0001 3.99963C12.0001 3.78263 12.0311 3.55563 12.0991 3.28363C12.1376 3.12837 12.1383 2.96614 12.1011 2.81056C12.0639 2.65498 11.99 2.51059 11.8854 2.38951C11.7809 2.26843 11.6489 2.17418 11.5004 2.1147C11.3519 2.05521 11.1913 2.03221 11.0321 2.04763C8.55554 2.27845 6.2551 3.42789 4.58353 5.26973C2.91196 7.11156 1.99034 9.51238 2.00008 11.9996C2.00008 17.5136 6.48608 21.9996 12.0001 21.9996C17.5141 21.9996 22.0001 17.5136 22.0001 11.9996C22.0001 11.9506 21.9971 11.9026 21.9931 11.8396C21.9897 11.6889 21.9525 11.5409 21.8841 11.4066C21.8157 11.2722 21.7179 11.155 21.5981 11.0636ZM12.0001 19.9996C7.58908 19.9996 4.00008 16.4106 4.00008 11.9996C3.99294 10.2229 4.58028 8.49485 5.66863 7.09047C6.75698 5.68609 8.28379 4.6861 10.0061 4.24963C10.0717 5.53036 10.6263 6.73709 11.5555 7.62091C12.4847 8.50473 13.7177 8.99823 15.0001 8.99963L15.1011 8.99862C15.3306 10.1169 15.9353 11.1231 16.815 11.8506C17.6947 12.5781 18.7966 12.9832 19.9381 12.9986C19.4441 16.9406 16.0731 19.9996 12.0001 19.9996Z" fill="currentColor"/>
<path d="M12.5001 12.9996C13.3285 12.9996 14.0001 12.3281 14.0001 11.4996C14.0001 10.6712 13.3285 9.99963 12.5001 9.99963C11.6716 9.99963 11.0001 10.6712 11.0001 11.4996C11.0001 12.3281 11.6716 12.9996 12.5001 12.9996Z" fill="currentColor"/>
<path d="M8.50006 9.99963C9.32849 9.99963 10.0001 9.32806 10.0001 8.49963C10.0001 7.67121 9.32849 6.99963 8.50006 6.99963C7.67163 6.99963 7.00006 7.67121 7.00006 8.49963C7.00006 9.32806 7.67163 9.99963 8.50006 9.99963Z" fill="currentColor"/>
<path d="M7.50006 13.9996C8.32849 13.9996 9.00006 13.3281 9.00006 12.4996C9.00006 11.6712 8.32849 10.9996 7.50006 10.9996C6.67163 10.9996 6.00006 11.6712 6.00006 12.4996C6.00006 13.3281 6.67163 13.9996 7.50006 13.9996Z" fill="currentColor"/>
<path d="M15.5001 16.9996C16.3285 16.9996 17.0001 16.3281 17.0001 15.4996C17.0001 14.6712 16.3285 13.9996 15.5001 13.9996C14.6716 13.9996 14.0001 14.6712 14.0001 15.4996C14.0001 16.3281 14.6716 16.9996 15.5001 16.9996Z" fill="currentColor"/>
<path d="M10.5001 17.9996C11.3285 17.9996 12.0001 17.3281 12.0001 16.4996C12.0001 15.6712 11.3285 14.9996 10.5001 14.9996C9.67163 14.9996 9.00006 15.6712 9.00006 16.4996C9.00006 17.3281 9.67163 17.9996 10.5001 17.9996Z" fill="currentColor"/>
</svg>
