<svg width="24" height="24" viewBox="0 0 24 24" fill="none" xmlns="http://www.w3.org/2000/svg">
<path d="M19.0682 4.93017C17.1822 3.10858 14.6562 2.10064 12.0342 2.12342C9.41223 2.14621 6.90411 3.1979 5.05003 5.05198C3.19595 6.90606 2.14426 9.41419 2.12147 12.0362C2.09869 14.6581 3.10663 17.1841 4.92821 19.0702C6.81423 20.8917 9.34026 21.8997 11.9622 21.8769C14.5842 21.8541 17.0923 20.8024 18.9464 18.9484C20.8005 17.0943 21.8522 14.5861 21.875 11.9642C21.8977 9.34221 20.8898 6.81619 19.0682 4.93017ZM6.33821 6.34017C7.4649 5.21301 8.90257 4.44806 10.4669 4.14339C12.0312 3.83872 13.6509 4.00823 15.1182 4.63017L14.8282 4.93017L15.5382 5.64017L16.0582 5.11017C16.3481 5.28511 16.6285 5.47538 16.8982 5.68017L5.67821 16.9002C5.47342 16.6305 5.28315 16.3501 5.10821 16.0602L5.63821 15.5402L4.92821 14.8302L4.63821 15.1202C4.01503 13.6538 3.84391 12.0347 4.14678 10.4704C4.44966 8.90617 5.21273 7.46798 6.33821 6.34017ZM17.6582 17.6602C16.5315 18.7873 15.0939 19.5523 13.5295 19.8569C11.9652 20.1616 10.3456 19.9921 8.87821 19.3702L9.16821 19.0702L8.45821 18.3602L7.93821 18.8902C7.64828 18.7152 7.36789 18.525 7.09821 18.3202L18.3182 7.10017C18.523 7.36984 18.7133 7.65024 18.8882 7.94017L18.3582 8.46017L19.0682 9.17017L19.3582 8.88017C19.9814 10.3466 20.1525 11.9656 19.8496 13.5299C19.5468 15.0942 18.7837 16.5324 17.6582 17.6602ZM11.2882 15.5402L11.9982 16.2402L10.5882 17.6602L9.87821 17.0002L11.2882 15.5402ZM14.1182 12.7102L14.8282 13.4102L13.4082 14.8302L12.7082 14.1202L14.1182 12.7102ZM16.9982 9.88017L17.7082 10.5902L16.2382 12.0002L15.5382 11.2902L16.9982 9.88017ZM12.7082 8.46017L11.9982 7.76017L13.4082 6.34017L14.1182 7.05017L12.7082 8.46017ZM9.87821 11.2902L9.16821 10.5902L10.5882 9.17017L11.2882 9.88017L9.87821 11.2902ZM7.04821 14.1202L6.33821 13.4102L7.75821 12.0002L8.45821 12.7102L7.04821 14.1202Z" fill="currentColor"/>
</svg>
