<svg width="24" height="24" viewBox="0 0 24 24" fill="none" xmlns="http://www.w3.org/2000/svg">
<path d="M11.219 3.37474L8 7.39874L4.781 3.37474C4.65099 3.21402 4.47444 3.09745 4.27558 3.041C4.07671 2.98456 3.86525 2.99101 3.6702 3.05946C3.47514 3.12791 3.30602 3.25502 3.18604 3.42335C3.06605 3.59169 3.00107 3.79302 3 3.99974V18.9997C3 20.1027 3.897 20.9997 5 20.9997H19C20.103 20.9997 21 20.1027 21 18.9997V3.99974C20.9989 3.79302 20.9339 3.59169 20.814 3.42335C20.694 3.25502 20.5249 3.12791 20.3298 3.05946C20.1347 2.99101 19.9233 2.98456 19.7244 3.041C19.5256 3.09745 19.349 3.21402 19.219 3.37474L16 7.39874L12.781 3.37474C12.4 2.90074 11.6 2.90074 11.219 3.37474ZM5 18.9997V16.9997H19.001V18.9997H5ZM15.219 9.62474C15.6 10.0997 16.401 10.0997 16.782 9.62474L19 6.85074L19.001 14.9997H5V6.85074L7.219 9.62474C7.6 10.0997 8.401 10.0997 8.782 9.62474L12 5.60074L15.219 9.62474Z" fill="currentColor"/>
</svg>
