<svg width="24" height="24" viewBox="0 0 24 24" fill="none" xmlns="http://www.w3.org/2000/svg">
<path d="M21.7811 13.875L19.7811 11.375C19.6874 11.2579 19.5685 11.1634 19.4333 11.0985C19.2981 11.0336 19.1501 10.9999 19.0001 11H13.0001V9H19.0001C20.1031 9 21.0001 8.103 21.0001 7V4C21.0001 2.897 20.1031 2 19.0001 2H5.00009C4.85013 1.99994 4.70207 2.03362 4.56688 2.09853C4.43168 2.16344 4.31282 2.25793 4.21909 2.375L2.21909 4.875C2.07726 5.05244 2 5.27284 2 5.5C2 5.72716 2.07726 5.94756 2.21909 6.125L4.21909 8.625C4.31282 8.74207 4.43168 8.83656 4.56688 8.90147C4.70207 8.96638 4.85013 9.00006 5.00009 9H11.0001V11H5.00009C3.89709 11 3.00009 11.897 3.00009 13V16C3.00009 17.103 3.89709 18 5.00009 18H11.0001V22H13.0001V18H19.0001C19.1501 18.0001 19.2981 17.9664 19.4333 17.9015C19.5685 17.8366 19.6874 17.7421 19.7811 17.625L21.7811 15.125C21.9229 14.9476 22.0002 14.7272 22.0002 14.5C22.0002 14.2728 21.9229 14.0524 21.7811 13.875ZM4.28109 5.5L5.48009 4H19.0001L19.0021 7H5.48009L4.28109 5.5ZM18.5201 16H5.00009V13H18.5201L19.7201 14.5L18.5201 16Z" fill="currentColor"/>
</svg>
