<svg width="24" height="24" viewBox="0 0 24 24" fill="none" xmlns="http://www.w3.org/2000/svg">
<path d="M10.385 21.7879C10.5046 21.8815 10.6439 21.9465 10.7924 21.9781C10.941 22.0096 11.0947 22.0068 11.242 21.9699L19.242 19.9699C19.4585 19.916 19.6508 19.7913 19.7882 19.6155C19.9255 19.4397 20.0001 19.223 20 18.9999V4.99987C19.9999 4.77681 19.9253 4.56017 19.788 4.38441C19.6506 4.20865 19.4584 4.08385 19.242 4.02987L11.242 2.02987C11.0947 1.99372 10.941 1.99146 10.7927 2.02327C10.6444 2.05507 10.5052 2.12011 10.3856 2.21349C10.2661 2.30687 10.1692 2.42615 10.1024 2.56237C10.0356 2.69858 10.0006 2.84816 10 2.99987V3.99987H6C5.73478 3.99987 5.48043 4.10523 5.29289 4.29276C5.10536 4.4803 5 4.73465 5 4.99987V18.9999C5 19.2651 5.10536 19.5194 5.29289 19.707C5.48043 19.8945 5.73478 19.9999 6 19.9999H10V20.9999C10 21.3079 10.142 21.5989 10.385 21.7879ZM12 4.28087L18 5.78087V18.2189L12 19.7189V4.28087ZM7 17.9999V5.99987H10V17.9999H7Z" fill="currentColor"/>
<path d="M14.242 13.1589C14.688 13.0469 15 12.6469 15 12.1879V11.8109C14.9999 11.5457 14.8944 11.2914 14.7068 11.1039C14.5191 10.9165 14.2647 10.8113 13.9995 10.8114C13.7343 10.8115 13.48 10.917 13.2925 11.1046C13.1051 11.2923 12.9999 11.5467 13 11.8119V12.1889C13 12.3408 13.0347 12.4907 13.1013 12.6272C13.1679 12.7637 13.2648 12.8833 13.3845 12.9767C13.5042 13.0702 13.6436 13.1352 13.7922 13.1668C13.9408 13.1984 14.0946 13.1957 14.242 13.1589Z" fill="currentColor"/>
</svg>
