<svg width="24" height="24" viewBox="0 0 24 24" fill="none" xmlns="http://www.w3.org/2000/svg">
<path d="M21.8878 5.536C21.8029 5.37444 21.6755 5.23914 21.5194 5.14468C21.3632 5.05022 21.1843 5.00019 21.0018 5H3.00177C2.81961 5.00075 2.64111 5.05115 2.48545 5.14576C2.32979 5.24038 2.20287 5.37564 2.11834 5.53699C2.0338 5.69835 1.99485 5.8797 2.00568 6.06153C2.0165 6.24337 2.07669 6.41881 2.17977 6.569L11.1798 19.569C11.2715 19.7022 11.3943 19.8112 11.5375 19.8864C11.6807 19.9617 11.84 20.001 12.0018 20.001C12.1635 20.001 12.3229 19.9617 12.4661 19.8864C12.6093 19.8112 12.732 19.7022 12.8238 19.569L21.8238 6.569C21.9279 6.41912 21.9889 6.24357 22.0001 6.06144C22.0114 5.87932 21.9726 5.69758 21.8878 5.536ZM12.0018 17.243L4.90977 7H19.0938L12.0018 17.243Z" fill="currentColor"/>
</svg>
