<svg width="24" height="24" viewBox="0 0 24 24" fill="none" xmlns="http://www.w3.org/2000/svg">
<path d="M5.96013 17.6745C6.99813 19.3315 6.99813 20.5675 6.99813 22.0005H8.99813C8.99813 20.4795 8.99813 18.7565 7.65513 16.6115L5.96013 17.6745ZM16.5021 3.38747C13.9751 1.91047 7.54813 0.926475 4.27913 4.30547C0.911129 7.78647 2.03013 13.3775 4.28013 15.6975C4.39813 15.8195 4.52413 15.9265 4.64913 16.0305C4.72113 16.0915 4.79513 16.1465 4.85413 16.2145L6.34813 14.8845C6.21819 14.7441 6.07815 14.6134 5.92913 14.4935C5.85713 14.4335 5.78313 14.3745 5.71513 14.3055C4.05513 12.5945 3.20913 8.28848 5.71613 5.69747C8.24113 3.08647 13.7841 4.11847 15.4931 5.11647C18.1841 6.68547 19.5901 9.42447 19.6021 9.44947L21.3911 8.55447C21.3261 8.41947 19.7231 5.26547 16.5021 3.38747Z" fill="currentColor"/>
<path d="M9.33808 12.8225C8.30808 11.5625 7.55108 10.5055 7.94608 9.31655C8.20908 8.53155 8.75908 7.99155 9.58308 7.71255C10.8071 7.30255 12.5031 7.55255 13.6231 8.31355L14.7461 6.65955C13.0981 5.53955 10.7641 5.20255 8.94208 5.81855C7.53408 6.29455 6.50708 7.31355 6.05008 8.68455C5.27408 11.0125 6.84908 12.9385 7.79008 14.0895C7.93908 14.2725 8.08008 14.4435 8.19908 14.6015C10.9981 18.3235 10.9981 20.1095 10.9981 22.0005H12.9981C12.9981 19.9645 12.9981 17.6555 9.79708 13.3995C9.64769 13.2044 9.49466 13.012 9.33808 12.8225ZM15.1291 9.47855C16.9641 11.2425 18.1631 13.9255 19.0181 18.1795L20.9791 17.7845C20.0401 13.1065 18.6631 10.0995 16.5161 8.03655L15.1291 9.47855Z" fill="currentColor"/>
<path d="M11.5541 9.16943L10.4391 10.8294C10.4661 10.8484 13.1501 12.7094 14.2401 16.5534L16.1641 16.0084C14.8651 11.4264 11.6881 9.25943 11.5541 9.16943ZM14.6861 18.4594C14.8961 19.6274 14.9981 20.7854 14.9981 22.0004H16.9981C16.9981 20.6654 16.8861 19.3924 16.6551 18.1054L14.6861 18.4594Z" fill="currentColor"/>
</svg>
