<svg width="24" height="24" viewBox="0 0 24 24" fill="none" xmlns="http://www.w3.org/2000/svg">
<path d="M19.0702 4.92922C18.1446 3.99628 17.0431 3.25623 15.8295 2.75191C14.6159 2.2476 13.3144 1.98905 12.0002 1.99122C10.6857 1.98917 9.38385 2.24777 8.16996 2.75207C6.95607 3.25637 5.85422 3.99636 4.92816 4.92922C1.02916 8.82722 1.02916 15.1722 4.92816 19.0712C5.85424 20.0043 6.95623 20.7445 8.17032 21.2488C9.38442 21.7531 10.6865 22.0116 12.0012 22.0092C13.3153 22.0115 14.6168 21.7531 15.8304 21.249C17.044 20.7449 18.1455 20.005 19.0712 19.0722C22.9702 15.1742 22.9702 8.82922 19.0702 4.92922ZM12.1802 4.00022H11.8212C11.8822 3.99922 11.9402 3.99122 12.0012 3.99122C12.0622 3.99122 12.1192 3.99922 12.1802 4.00022ZM18.2422 17.0002H15.9992L14.7412 19.5162C13.8636 19.8404 12.9357 20.0073 12.0002 20.0092C11.0629 20.0075 10.1333 19.8403 9.25416 19.5152L7.99916 17.0102H5.76416C4.93959 15.9851 4.38197 14.7716 4.14116 13.4782L5.99916 11.0002L4.78316 8.56722C5.17116 7.74181 5.69855 6.98946 6.34216 6.34322C7.24294 5.43928 8.34705 4.76413 9.56216 4.37422L11.9992 6.00022L14.4372 4.37522C15.6519 4.76541 16.7559 5.44014 17.6572 6.34322C18.3001 6.98869 18.8271 7.73999 19.2152 8.56422L17.9992 11.0002L19.8572 13.4782C19.6174 14.7674 19.0626 15.9773 18.2422 17.0002Z" fill="currentColor"/>
<path d="M8.49915 11.0002L9.99915 15.0002H13.9991L15.4991 11.0002L11.9991 8.50024L8.49915 11.0002Z" fill="currentColor"/>
</svg>
