<svg width="24" height="24" viewBox="0 0 24 24" fill="none" xmlns="http://www.w3.org/2000/svg">
<path d="M14.4692 13.7702L13.0592 12.3502L18.7192 6.7002L17.2992 5.2802L11.6492 10.9402L10.2292 9.5302L15.8892 3.8702L14.4692 2.4502L8.10922 8.8202C7.54742 9.3827 7.23186 10.1452 7.23186 10.9402C7.23186 11.7352 7.54742 12.4977 8.10922 13.0602L8.81922 13.7702L2.44922 20.1302L3.86922 21.5502L10.2292 15.1802L10.9392 15.8902C11.5017 16.452 12.2642 16.7676 13.0592 16.7676C13.8542 16.7676 14.6167 16.452 15.1792 15.8902L21.5492 9.5302L20.1292 8.1102L14.4692 13.7702Z" fill="currentColor"/>
</svg>
