<svg width="24" height="24" viewBox="0 0 24 24" fill="none" xmlns="http://www.w3.org/2000/svg">
<path d="M6.01172 2C4.08172 2 2.51172 3.57 2.51172 5.5C2.51172 7.08 3.57172 8.403 5.01172 8.837V15.997C5.01072 16.176 5.03872 17.778 6.18572 18.928C6.89372 19.64 7.84172 20 9.00172 20V22L13.0017 19L9.00172 16V18C7.17872 18 7.01772 16.466 7.01172 16V8.837C8.45172 8.403 9.51172 7.08 9.51172 5.5C9.51172 3.57 7.94072 2 6.01172 2ZM6.01172 7C5.18472 7 4.51172 6.327 4.51172 5.5C4.51172 4.673 5.18472 4 6.01172 4C6.83872 4 7.51172 4.673 7.51172 5.5C7.51172 6.327 6.83872 7 6.01172 7ZM19.0117 15.163V7.997C19.0067 6.391 17.9347 4 15.0017 4V2L11.0017 5L15.0017 8V6C16.8307 6 17.0027 7.539 17.0117 8V15.163C15.5717 15.597 14.5117 16.92 14.5117 18.5C14.5117 20.43 16.0817 22 18.0117 22C19.9417 22 21.5117 20.43 21.5117 18.5C21.5117 16.92 20.4517 15.597 19.0117 15.163ZM18.0117 20C17.1847 20 16.5117 19.327 16.5117 18.5C16.5117 17.673 17.1847 17 18.0117 17C18.8387 17 19.5117 17.673 19.5117 18.5C19.5117 19.327 18.8387 20 18.0117 20Z" fill="currentColor"/>
</svg>
