<svg width="24" height="24" viewBox="0 0 24 24" fill="none" xmlns="http://www.w3.org/2000/svg">
<path d="M11.0007 18.7907V19.9997H9.00069V21.9997H15.0007V19.9997H13.0007V18.1547C14.1462 17.6592 15.188 16.9522 16.0717 16.0707C19.9697 12.1727 19.9697 5.82773 16.0717 1.92773L14.6577 3.34173C17.7767 6.46173 17.7767 11.5367 14.6577 14.6557C11.5387 17.7737 6.46269 17.7757 3.34369 14.6557L1.92969 16.0697C2.85772 16.9987 3.9601 17.7352 5.17354 18.237C6.38699 18.7388 7.68759 18.996 9.00069 18.9937C9.67249 18.9936 10.3426 18.9255 11.0007 18.7907Z" fill="currentColor"/>
<path d="M3.00067 8.99976C3.00067 12.3088 5.69167 14.9998 9.00067 14.9998C12.3097 14.9998 15.0007 12.3088 15.0007 8.99976C15.0007 5.69076 12.3097 2.99976 9.00067 2.99976C5.69167 2.99976 3.00067 5.69076 3.00067 8.99976ZM13.0007 8.99976C13.0007 11.2058 11.2067 12.9998 9.00067 12.9998C6.79467 12.9998 5.00067 11.2058 5.00067 8.99976C5.00067 6.79376 6.79467 4.99976 9.00067 4.99976C11.2067 4.99976 13.0007 6.79376 13.0007 8.99976Z" fill="currentColor"/>
</svg>
