<svg width="24" height="24" viewBox="0 0 24 24" fill="none" xmlns="http://www.w3.org/2000/svg">
<path d="M22.0003 8.65001C21.9116 7.38551 21.3459 6.2019 20.4177 5.33864C19.4894 4.47538 18.2679 3.99691 17.0003 4.00002H7.00032C5.71808 3.99828 4.48418 4.48923 3.55363 5.37139C2.62307 6.25356 2.067 7.45951 2.00032 8.74002C1.99468 8.82659 1.99468 8.91344 2.00032 9.00002V16.5C1.99767 16.9604 2.08639 17.4167 2.26134 17.8425C2.43629 18.2684 2.694 18.6553 3.01953 18.9808C3.34507 19.3063 3.73196 19.564 4.1578 19.739C4.58364 19.9139 5.03996 20.0027 5.50032 20C6.93032 20 7.82032 18.94 8.69032 17.91C9.01032 17.54 9.34032 17.15 9.69032 16.81C10.1546 16.4699 10.6763 16.2159 11.2303 16.06C11.7419 16 12.2587 16 12.7703 16.06C13.3244 16.2159 13.846 16.4699 14.3103 16.81C14.6603 17.15 14.9903 17.54 15.3103 17.91C16.1803 18.91 17.0703 20 18.5003 20C18.9607 20.0027 19.417 19.9139 19.8428 19.739C20.2687 19.564 20.6556 19.3063 20.9811 18.9808C21.3066 18.6553 21.5644 18.2684 21.7393 17.8425C21.9143 17.4167 22.003 16.9604 22.0003 16.5V9.00002C22.0057 8.91343 22.0057 8.8266 22.0003 8.74002V8.65001ZM20.0003 16.5C20.0003 16.8978 19.8423 17.2794 19.561 17.5607C19.2797 17.842 18.8981 18 18.5003 18C18.0003 18 17.5003 17.36 16.8403 16.62C16.5003 16.23 16.1203 15.77 15.6903 15.36C14.9663 14.7767 14.1284 14.3509 13.2303 14.11C12.4169 13.9633 11.5838 13.9633 10.7703 14.11C9.87226 14.3509 9.03439 14.7767 8.31032 15.36C7.88032 15.77 7.50032 16.23 7.16032 16.62C6.54032 17.36 6.00032 18 5.50032 18C5.1025 18 4.72097 17.842 4.43966 17.5607C4.15836 17.2794 4.00032 16.8978 4.00032 16.5V9.00002C4.0052 8.95013 4.0052 8.8999 4.00032 8.85002C4.03884 8.08065 4.37183 7.35558 4.93032 6.82501C5.48881 6.29445 6.22999 5.99905 7.00032 6.00002H17.0003C17.7498 5.99674 18.4733 6.2741 19.0285 6.77749C19.5837 7.28088 19.9304 7.97385 20.0003 8.72002V8.84002C19.9953 8.89323 19.9953 8.9468 20.0003 9.00002V16.5Z" fill="currentColor"/>
<path d="M16.0003 13C16.5526 13 17.0003 12.5523 17.0003 12C17.0003 11.4477 16.5526 11 16.0003 11C15.448 11 15.0003 11.4477 15.0003 12C15.0003 12.5523 15.448 13 16.0003 13Z" fill="currentColor"/>
<path d="M18.0003 11C18.5526 11 19.0003 10.5523 19.0003 10C19.0003 9.44772 18.5526 9 18.0003 9C17.448 9 17.0003 9.44772 17.0003 10C17.0003 10.5523 17.448 11 18.0003 11Z" fill="currentColor"/>
<path d="M16.0003 9C16.5526 9 17.0003 8.55228 17.0003 8C17.0003 7.44772 16.5526 7 16.0003 7C15.448 7 15.0003 7.44772 15.0003 8C15.0003 8.55228 15.448 9 16.0003 9Z" fill="currentColor"/>
<path d="M14.0003 11C14.5526 11 15.0003 10.5523 15.0003 10C15.0003 9.44772 14.5526 9 14.0003 9C13.448 9 13.0003 9.44772 13.0003 10C13.0003 10.5523 13.448 11 14.0003 11Z" fill="currentColor"/>
<path d="M8.00031 12C9.10487 12 10.0003 11.1046 10.0003 10C10.0003 8.89543 9.10487 8 8.00031 8C6.89574 8 6.00031 8.89543 6.00031 10C6.00031 11.1046 6.89574 12 8.00031 12Z" fill="currentColor"/>
</svg>
