<svg width="24" height="24" viewBox="0 0 24 24" fill="none" xmlns="http://www.w3.org/2000/svg">
<path d="M18.4659 2.11374C18.3044 2.0288 18.1227 1.98977 17.9406 2.00087C17.7585 2.01198 17.5829 2.07281 17.4329 2.17674L4.43288 11.1767C4.30044 11.2692 4.19228 11.3922 4.11759 11.5354C4.04291 11.6786 4.00391 11.8377 4.00391 11.9992C4.00391 12.1607 4.04291 12.3199 4.11759 12.4631C4.19228 12.6063 4.30044 12.7293 4.43288 12.8217L17.4329 21.8217C17.5829 21.9255 17.7585 21.9863 17.9406 21.9975C18.1227 22.0087 18.3043 21.9699 18.466 21.8852C18.6276 21.8005 18.7629 21.6733 18.8574 21.5172C18.9519 21.3611 19.0018 21.1822 19.0019 20.9997V2.99974C19.0019 2.8172 18.952 2.63814 18.8575 2.48196C18.763 2.32577 18.6276 2.19843 18.4659 2.11374ZM17.0019 19.0907L6.75888 11.9997L17.0019 4.90874V19.0907Z" fill="currentColor"/>
</svg>
