<svg width="24" height="24" viewBox="0 0 24 24" fill="none" xmlns="http://www.w3.org/2000/svg">
<path d="M12.001 22C13.1055 22 14.001 21.1046 14.001 20C14.001 18.8954 13.1055 18 12.001 18C10.8964 18 10.001 18.8954 10.001 20C10.001 21.1046 10.8964 22 12.001 22Z" fill="currentColor"/>
<path d="M12.001 6C13.1055 6 14.001 5.10457 14.001 4C14.001 2.89543 13.1055 2 12.001 2C10.8964 2 10.001 2.89543 10.001 4C10.001 5.10457 10.8964 6 12.001 6Z" fill="currentColor"/>
<path d="M6.34399 19.657C7.44856 19.657 8.34399 18.7616 8.34399 17.657C8.34399 16.5524 7.44856 15.657 6.34399 15.657C5.23942 15.657 4.34399 16.5524 4.34399 17.657C4.34399 18.7616 5.23942 19.657 6.34399 19.657Z" fill="currentColor"/>
<path d="M17.658 8.34302C18.7625 8.34302 19.658 7.44759 19.658 6.34302C19.658 5.23845 18.7625 4.34302 17.658 4.34302C16.5534 4.34302 15.658 5.23845 15.658 6.34302C15.658 7.44759 16.5534 8.34302 17.658 8.34302Z" fill="currentColor"/>
<path d="M4.001 14.001C5.10612 14.001 6.002 13.1051 6.002 12C6.002 10.8949 5.10612 9.99902 4.001 9.99902C2.89588 9.99902 2 10.8949 2 12C2 13.1051 2.89588 14.001 4.001 14.001Z" fill="currentColor"/>
<path d="M20.001 14C21.1055 14 22.001 13.1046 22.001 12C22.001 10.8954 21.1055 10 20.001 10C18.8964 10 18.001 10.8954 18.001 12C18.001 13.1046 18.8964 14 20.001 14Z" fill="currentColor"/>
<path d="M6.34399 8.34399C7.44856 8.34399 8.34399 7.44856 8.34399 6.34399C8.34399 5.23942 7.44856 4.34399 6.34399 4.34399C5.23942 4.34399 4.34399 5.23942 4.34399 6.34399C4.34399 7.44856 5.23942 8.34399 6.34399 8.34399Z" fill="currentColor"/>
<path d="M17.658 19.658C18.7625 19.658 19.658 18.7625 19.658 17.658C19.658 16.5534 18.7625 15.658 17.658 15.658C16.5534 15.658 15.658 16.5534 15.658 17.658C15.658 18.7625 16.5534 19.658 17.658 19.658Z" fill="currentColor"/>
</svg>
