<svg width="24" height="24" viewBox="0 0 24 24" fill="none" xmlns="http://www.w3.org/2000/svg">
<path d="M21.447 6.10474L15.447 3.10474C15.3081 3.03522 15.1549 2.99902 14.9995 2.99902C14.8441 2.99902 14.6909 3.03522 14.552 3.10474L9 5.88174L3.447 3.10474C3.2945 3.02854 3.12506 2.99258 2.95476 3.0003C2.78446 3.00801 2.61895 3.05913 2.47397 3.14881C2.32899 3.23848 2.20933 3.36373 2.12638 3.51267C2.04342 3.6616 1.99992 3.82926 2 3.99974V16.9997C2 17.3787 2.214 17.7247 2.553 17.8947L8.553 20.8947C8.69193 20.9643 8.84515 21.0005 9.0005 21.0005C9.15585 21.0005 9.30907 20.9643 9.448 20.8947L15 18.1177L20.553 20.8937C20.7051 20.9707 20.8744 21.0071 21.0446 20.9996C21.2149 20.9921 21.3803 20.9408 21.525 20.8507C21.82 20.6677 22 20.3467 22 19.9997V6.99974C22 6.62074 21.786 6.27474 21.447 6.10474ZM10 7.61774L14 5.61774V16.3817L10 18.3817V7.61774ZM4 5.61774L8 7.61774V18.3817L4 16.3817V5.61774ZM20 18.3817L16 16.3817V5.61774L20 7.61774V18.3817Z" fill="currentColor"/>
</svg>
