<svg width="24" height="24" viewBox="0 0 24 24" fill="none" xmlns="http://www.w3.org/2000/svg">
<path d="M9.50091 21.9996C11.5039 21.9996 13.3879 21.2196 14.8139 19.7926L21.7179 12.6966C21.8549 12.5557 21.9473 12.3775 21.9836 12.1843C22.0199 11.9911 21.9985 11.7915 21.922 11.6104C21.8455 11.4293 21.7173 11.2748 21.5535 11.1662C21.3897 11.0576 21.1975 10.9996 21.0009 10.9996H17.6999L21.8749 3.48561C21.9795 3.29569 22.0195 3.07695 21.9891 2.8623C21.9586 2.64764 21.8593 2.44868 21.7061 2.29532C21.5528 2.14196 21.3539 2.0425 21.1393 2.0119C20.9247 1.98129 20.7059 2.0212 20.5159 2.12561L13.4059 6.07561L13.9819 3.19661C14.0225 2.99288 13.9987 2.78155 13.9138 2.59197C13.8288 2.40239 13.6869 2.24399 13.5078 2.13876C13.3286 2.03353 13.1212 1.9867 12.9142 2.00477C12.7073 2.02284 12.5111 2.10492 12.3529 2.23961L4.19691 9.19661C1.27291 12.1206 1.27291 16.8786 4.19691 19.8026C4.89182 20.5013 5.71841 21.0553 6.62884 21.4324C7.53928 21.8095 8.51546 22.0023 9.50091 21.9996ZM5.55291 10.6646L11.4549 5.63361L10.5969 9.92361L18.4269 5.57361L15.1269 11.5136L15.1259 11.5146L14.3019 12.9996H18.6329L13.3899 18.3886C12.3509 19.4276 10.9699 19.9996 9.50091 19.9996C8.03191 19.9996 6.64991 19.4276 5.61091 18.3886C3.46791 16.2446 3.46791 12.7546 5.55291 10.6646Z" fill="currentColor"/>
<path d="M9.50091 17.9996C10.2973 18.0025 11.0707 17.7332 11.693 17.2362C12.3153 16.7392 12.749 16.0445 12.9222 15.2672C13.0955 14.4899 12.9978 13.6767 12.6454 12.9625C12.2931 12.2483 11.7072 11.6761 10.9849 11.3406C10.9899 11.3936 11.0009 11.4456 11.0009 11.4996C11.0009 11.8974 10.8429 12.2789 10.5616 12.5602C10.2803 12.8415 9.89874 12.9996 9.50091 12.9996C9.10309 12.9996 8.72156 12.8415 8.44025 12.5602C8.15895 12.2789 8.00091 11.8974 8.00091 11.4996C8.00091 11.4456 8.01191 11.3936 8.01691 11.3406C7.29465 11.6761 6.70876 12.2483 6.35639 12.9625C6.00403 13.6767 5.90636 14.4899 6.07959 15.2672C6.25282 16.0445 6.68653 16.7392 7.30881 17.2362C7.93109 17.7332 8.70454 18.0025 9.50091 17.9996Z" fill="currentColor"/>
</svg>
