<svg width="24" height="24" viewBox="0 0 24 24" fill="none" xmlns="http://www.w3.org/2000/svg">
<path d="M2.00158 9.62962C1.97858 10.0406 2.20858 10.4236 2.58258 10.5956L10.0866 14.0376L13.5286 21.5406C13.6926 21.8966 14.0486 22.1236 14.4376 22.1236L14.4946 22.1216C14.6953 22.1104 14.8879 22.0389 15.0474 21.9165C15.2069 21.7942 15.3258 21.6266 15.3886 21.4356L20.9836 4.40362C21.1006 4.04562 21.0066 3.65062 20.7406 3.38362C20.4746 3.11662 20.0806 3.02562 19.7206 3.14062L2.68758 8.73562C2.49663 8.79842 2.32903 8.91732 2.20666 9.07679C2.08429 9.23627 2.01282 9.42892 2.00158 9.62962ZM18.4656 5.65862L14.2836 18.3886L11.7496 12.8666C11.6499 12.6489 11.4753 12.4743 11.2576 12.3746L5.73358 9.84062L18.4656 5.65862Z" fill="currentColor"/>
</svg>
