<svg width="24" height="24" viewBox="0 0 24 24" fill="none" xmlns="http://www.w3.org/2000/svg">
<path d="M7.06115 22.0003C8.58415 22.0003 9.90115 21.4573 10.9712 20.3873C12.0942 19.2643 12.6782 17.5333 12.5222 15.8933L21.0862 7.32927C21.6708 6.74344 21.9989 5.9495 21.9986 5.12186C21.9982 4.29422 21.6693 3.50058 21.0842 2.91527C19.9062 1.73527 17.8502 1.73527 16.6722 2.91527L7.78815 11.7993C5.87515 11.9683 3.98115 13.3203 3.98115 15.7183C3.98115 16.0213 4.00215 16.3063 4.02315 16.5783C4.10315 17.6093 4.13215 17.9963 2.55215 18.7863C2.39696 18.8641 2.26469 18.981 2.16833 19.1254C2.07196 19.2699 2.01482 19.4369 2.00252 19.6101C1.99021 19.7832 2.02316 19.9566 2.09814 20.1133C2.17311 20.2699 2.28753 20.4043 2.43015 20.5033C2.52015 20.5633 4.62315 22.0003 7.06115 22.0003ZM18.0862 4.32827C18.2995 4.12358 18.5839 4.00945 18.8796 4.00983C19.1752 4.0102 19.4593 4.12504 19.6722 4.33027C19.7762 4.43428 19.8587 4.55775 19.915 4.69364C19.9713 4.82953 20.0002 4.97518 20.0002 5.12227C20.0002 5.26936 19.9713 5.41501 19.915 5.55091C19.8587 5.6868 19.7762 5.81027 19.6722 5.91427L12.0002 13.5863L10.4142 12.0003L18.0862 4.32827ZM6.01815 16.4233C6.00015 16.1993 5.98115 15.9653 5.98115 15.7173C5.98115 14.1723 7.42615 13.7643 8.19115 13.7643C8.54715 13.7643 8.89015 13.8373 9.15515 13.9703C10.1002 14.4453 10.4152 15.2633 10.5122 15.8663C10.6892 16.9563 10.2952 18.2343 9.55615 18.9733C8.86515 19.6643 8.04915 20.0003 7.06115 20.0003C6.31115 20.0003 5.58115 19.8043 4.98615 19.5733C6.06815 18.6003 6.10715 17.5843 6.01815 16.4233Z" fill="currentColor"/>
</svg>
