<svg width="24" height="24" viewBox="0 0 24 24" fill="none" xmlns="http://www.w3.org/2000/svg">
<path d="M20.5584 3.33976C20.4136 3.23953 20.2448 3.17934 20.0692 3.16529C19.8936 3.15125 19.7174 3.18384 19.5584 3.25976L2.55843 11.2598C2.38516 11.3423 2.23928 11.4729 2.13821 11.636C2.03714 11.7991 1.98515 11.9879 1.98843 12.1798C1.99161 12.3715 2.04986 12.5583 2.15624 12.7179C2.26262 12.8775 2.41264 13.0031 2.58843 13.0798L7.99843 15.4498V22.1698L13.8384 17.9998L18.5984 20.0798C18.7234 20.1391 18.8601 20.1699 18.9984 20.1698C19.1823 20.1685 19.3622 20.1166 19.5184 20.0198C19.6561 19.9364 19.7716 19.8211 19.8552 19.6836C19.9388 19.546 19.9879 19.3903 19.9984 19.2298L20.9984 4.22976C21.0089 4.05595 20.9739 3.8824 20.8967 3.7263C20.8195 3.5702 20.7029 3.43696 20.5584 3.33976ZM18.0984 17.6798L12.8284 15.3698L15.9984 9.16976L8.34843 13.4198L5.41843 12.1298L18.8884 5.78976L18.0984 17.6798Z" fill="currentColor"/>
</svg>
