<svg width="24" height="24" viewBox="0 0 24 24" fill="none" xmlns="http://www.w3.org/2000/svg">
<path d="M18.4033 2.99832C17.6463 2.24432 16.3263 2.24732 15.5753 3.00332L13.7913 4.79432L11.5853 7.00032H6.99935C6.79417 7.00018 6.59394 7.06327 6.42592 7.18102C6.2579 7.29876 6.13024 7.46543 6.06035 7.65832L2.06035 18.6583C1.92735 19.0233 2.01835 19.4323 2.29235 19.7073L4.29235 21.7073C4.4268 21.8421 4.59703 21.9356 4.78292 21.9767C4.96882 22.0178 5.16259 22.0048 5.34135 21.9393L16.3413 17.9393C16.5342 17.8694 16.7009 17.7418 16.8187 17.5737C16.9364 17.4057 16.9995 17.2055 16.9993 17.0003V12.4143L19.2073 10.2063L20.9993 8.40932C21.3773 8.03132 21.5853 7.52832 21.5843 6.99432C21.5843 6.45932 21.3753 5.95632 20.9963 5.57932L18.4033 2.99832ZM15.2923 11.2933C15.1993 11.386 15.1255 11.4962 15.0752 11.6176C15.0249 11.7389 14.9992 11.869 14.9993 12.0003V16.3003L5.75035 19.6633L10.4213 14.9923C10.4473 14.9933 10.4733 15.0003 10.4993 15.0003C10.796 15.0003 11.086 14.9124 11.3327 14.7475C11.5794 14.5827 11.7716 14.3484 11.8852 14.0743C11.9987 13.8003 12.0284 13.4987 11.9705 13.2077C11.9126 12.9167 11.7698 12.6494 11.56 12.4397C11.3502 12.2299 11.083 12.087 10.792 12.0291C10.501 11.9713 10.1994 12.001 9.92532 12.1145C9.65123 12.228 9.41696 12.4203 9.25214 12.667C9.08732 12.9136 8.99935 13.2037 8.99935 13.5003C8.99935 13.5263 9.00635 13.5523 9.00735 13.5783L4.33635 18.2493L7.69935 9.00032H11.9993C12.2653 9.00032 12.5193 8.89532 12.7063 8.70732L14.4993 6.91432L17.0853 9.50032L15.2923 11.2933ZM18.4983 8.08532L15.9123 5.49932L16.9913 4.41532L19.5843 6.99632L18.4983 8.08532Z" fill="currentColor"/>
</svg>
