<svg width="24" height="24" viewBox="0 0 24 24" fill="none" xmlns="http://www.w3.org/2000/svg">
<path d="M14.917 8.04199C15.4921 8.04217 15.958 8.5088 15.958 9.08398C15.9578 9.65902 15.492 10.1248 14.917 10.125C14.3418 10.125 13.8752 9.65913 13.875 9.08398C13.875 8.50869 14.3417 8.04199 14.917 8.04199Z" fill="currentColor"/>
<path fill-rule="evenodd" clip-rule="evenodd" d="M21.3281 2.9248C22.1266 3.00566 22.7498 3.68019 22.75 4.5V19.5C22.75 20.3743 22.0413 21.0838 21.167 21.084H2.83301C1.95871 21.0838 1.25 20.3743 1.25 19.5V4.5C1.25018 3.62581 1.95882 2.91717 2.83301 2.91699H21.167L21.3281 2.9248ZM7.80176 11.4346C7.79167 11.4387 7.78214 11.4454 7.77441 11.4531L2.75 16.4775V19.5C2.75 19.5459 2.78713 19.5838 2.83301 19.584H21.167C21.2129 19.5838 21.25 19.5459 21.25 19.5V18.1445L17.0586 13.9531C17.0509 13.9455 17.0422 13.9387 17.0322 13.9346C17.0222 13.9304 17.0109 13.9287 17 13.9287C16.9891 13.9287 16.9779 13.9304 16.9678 13.9346C16.9578 13.9387 16.9491 13.9455 16.9414 13.9531L14.7861 16.1084C14.6392 16.2553 14.4644 16.3717 14.2725 16.4512C14.0805 16.5307 13.8747 16.5712 13.667 16.5713C13.4591 16.5713 13.2526 16.5307 13.0605 16.4512C12.8686 16.3716 12.6938 16.2553 12.5469 16.1084L7.89258 11.4531C7.88486 11.4454 7.87531 11.4388 7.86523 11.4346C7.8552 11.4304 7.84387 11.4287 7.83301 11.4287C7.82236 11.4288 7.81162 11.4306 7.80176 11.4346ZM2.83301 4.41699C2.78724 4.41717 2.75018 4.45423 2.75 4.5V14.3564L6.71387 10.3926C6.86088 10.2456 7.03546 10.1284 7.22754 10.0488C7.41945 9.96939 7.62531 9.92875 7.83301 9.92871C8.0409 9.92872 8.24738 9.96927 8.43945 10.0488C8.63151 10.1284 8.80613 10.2456 8.95312 10.3926L13.6074 15.0469C13.6152 15.0546 13.6247 15.0612 13.6348 15.0654C13.6448 15.0696 13.6561 15.0713 13.667 15.0713C13.6777 15.0712 13.6883 15.0695 13.6982 15.0654C13.7083 15.0612 13.7179 15.0546 13.7256 15.0469L15.8809 12.8926C16.0278 12.7457 16.2025 12.6284 16.3945 12.5488C16.5865 12.4694 16.7923 12.4287 17 12.4287C17.2077 12.4287 17.4135 12.4694 17.6055 12.5488C17.7975 12.6284 17.9722 12.7456 18.1191 12.8926L21.25 16.0225V4.5C21.2499 4.4657 21.2289 4.43649 21.1992 4.42383L21.167 4.41699H2.83301Z" fill="currentColor"/>
</svg>
