<svg width="24" height="24" viewBox="0 0 24 24" fill="none" xmlns="http://www.w3.org/2000/svg">
<path d="M14.333 8.6748C14.7932 8.6748 15.167 9.06658 15.167 9.5498C15.167 10.033 14.7932 10.4248 14.333 10.4248C13.8729 10.4246 13.5 10.0329 13.5 9.5498C13.5 9.06669 13.8729 8.67499 14.333 8.6748Z" fill="black"/>
<path fill-rule="evenodd" clip-rule="evenodd" d="M19.333 4.25C20.1494 4.25 20.75 4.93427 20.75 5.7002V18.2998C20.7498 19.0656 20.1493 19.749 19.333 19.749H4.66699C3.85071 19.749 3.25022 19.0656 3.25 18.2998V5.7002C3.25 4.93427 3.85056 4.25 4.66699 4.25H19.333ZM4.75 15.7988V18.249H19.25V17.1992L15.999 13.7861L14.3477 15.5215C14.2179 15.6577 14.062 15.7679 13.8877 15.8438C13.7132 15.9196 13.5242 15.96 13.333 15.96C13.1419 15.9599 12.9537 15.9196 12.7793 15.8438C12.6049 15.7679 12.4481 15.6577 12.3184 15.5215L8.66602 11.6875L4.75 15.7988ZM4.75 13.624L7.65234 10.5771L7.75391 10.4805C7.86078 10.3883 7.98136 10.3118 8.1123 10.2549L8.24609 10.2051C8.38158 10.162 8.52368 10.1397 8.66699 10.1396L8.80957 10.1475C8.90416 10.1573 8.99749 10.1763 9.08789 10.2051L9.2207 10.2549L9.34863 10.3184C9.43092 10.3646 9.50797 10.4192 9.5791 10.4805L9.68066 10.5771L13.333 14.4111L14.9854 12.6777L15.0879 12.5801C15.1945 12.4883 15.3148 12.4123 15.4453 12.3555L15.5791 12.3047C15.7146 12.2616 15.8566 12.2393 16 12.2393L16.1426 12.2471C16.2372 12.2569 16.3305 12.2759 16.4209 12.3047L16.5547 12.3555L16.6816 12.418C16.7639 12.4642 16.841 12.5188 16.9121 12.5801L17.0146 12.6777L19.25 15.0244V5.75H4.75V13.624Z" fill="black"/>
</svg>
