<svg width="24" height="24" viewBox="0 0 24 24" fill="none" xmlns="http://www.w3.org/2000/svg">
<path d="M2.7611 20.2002C3.03545 20.4905 3.37019 20.7171 3.74168 20.864C4.11317 21.0109 4.51236 21.0744 4.9111 21.0502C6.08022 20.989 7.22561 20.6967 8.2811 20.1902C9.86289 20.899 11.6157 21.136 13.3289 20.8726C15.0422 20.6093 16.6429 19.8568 17.9388 18.7056C19.2347 17.5544 20.1705 16.0535 20.6339 14.3833C21.0974 12.713 21.0686 10.9445 20.5511 9.29017C21.8611 7.06017 22.3011 5.03017 21.2211 3.81017C20.9071 3.44605 20.5087 3.16449 20.0606 2.99015C19.6126 2.81581 19.1286 2.75401 18.6511 2.81017C17.7047 2.95453 16.8196 3.36756 16.1011 4.00017C14.488 3.18057 12.6653 2.86622 10.8709 3.09813C9.0764 3.33003 7.39351 4.09743 6.04176 5.30018C4.69002 6.50293 3.73218 8.0852 3.29323 9.84052C2.85428 11.5958 2.9546 13.4427 3.5811 15.1402C2.5211 16.3502 1.5311 18.8202 2.7611 20.2002ZM4.2611 18.8802C4.0411 18.6302 4.2611 17.8102 4.6311 17.1202C5.07863 17.7643 5.60618 18.349 6.2011 18.8602C5.1711 19.1602 4.4911 19.1402 4.2611 18.8802ZM18.7711 13.7102C18.3172 15.5059 17.1701 17.0485 15.5811 18.0002C14.4974 18.6446 13.2619 18.9897 12.0011 19.0002C11.5845 18.997 11.1693 18.9535 10.7611 18.8702C12.33 17.9081 13.8093 16.807 15.1811 15.5802C16.5623 14.3605 17.8339 13.0221 18.9811 11.5802C19.0226 12.2968 18.9518 13.0155 18.7711 13.7102ZM18.8611 4.82017C19.0214 4.79377 19.1858 4.80938 19.3383 4.86546C19.4908 4.92155 19.6261 5.01619 19.7311 5.14017C19.9611 5.40017 19.8911 6.08017 19.4711 7.07017C19.0201 6.38089 18.4786 5.7553 17.8611 5.21017C18.162 5.00872 18.5033 4.87561 18.8611 4.82017ZM5.2211 10.3102C5.44039 9.41609 5.83536 8.57458 6.38303 7.83463C6.93069 7.09469 7.6201 6.47109 8.4111 6.00017C9.49542 5.34856 10.7361 5.00298 12.0011 5.00017C13.2125 4.99181 14.4048 5.30255 15.4581 5.90114C16.5113 6.49973 17.3884 7.36508 18.0011 8.41017C18.1335 8.62147 18.2504 8.84204 18.3511 9.07017C17.065 10.9146 15.557 12.5938 13.8611 14.0702C12.1942 15.6032 10.3434 16.9233 8.3511 18.0002C7.08494 17.2223 6.09916 16.0618 5.53644 14.6865C4.97373 13.3111 4.86329 11.7924 5.2211 10.3502V10.3102Z" fill="currentColor"/>
</svg>
