<svg width="24" height="24" viewBox="0 0 24 24" fill="none" xmlns="http://www.w3.org/2000/svg">
<path d="M20.9782 13.21C21.0193 13.0193 21.0037 12.8207 20.9333 12.6388C20.863 12.4568 20.7409 12.2994 20.5822 12.186L6.58222 2.18597C6.42468 2.07268 6.23756 2.00773 6.04372 1.99905C5.84987 1.99036 5.65769 2.03832 5.49065 2.13706C5.32361 2.2358 5.18894 2.38105 5.10309 2.55506C5.01724 2.72908 4.98393 2.92433 5.00722 3.11697L7.00722 20.117C7.03025 20.3119 7.1101 20.4957 7.23685 20.6455C7.3636 20.7953 7.53163 20.9046 7.72001 20.9596C7.90839 21.0146 8.10879 21.013 8.29625 20.9549C8.48371 20.8968 8.64994 20.7848 8.77422 20.633L12.3862 16.217L15.7632 21.677L17.4642 20.625L14.1072 15.197L20.1962 13.979C20.3876 13.9415 20.5637 13.8487 20.7027 13.7119C20.8418 13.5752 20.9376 13.4007 20.9782 13.21ZM12.3042 13.52C12.0772 13.5652 11.8729 13.6879 11.7262 13.867L8.71822 17.544L7.25722 5.12697L17.5402 12.472L12.3042 13.52Z" fill="currentColor"/>
</svg>
