<svg width="24" height="24" viewBox="0 0 24 24" fill="none" xmlns="http://www.w3.org/2000/svg">
<path d="M12.1406 2C10.1628 2 8.22942 2.58649 6.58493 3.6853C4.94044 4.78412 3.65871 6.3459 2.90183 8.17317C2.14496 10.0004 1.94692 12.0111 2.33278 13.9509C2.71863 15.8907 3.67104 17.6725 5.06956 19.0711C6.46809 20.4696 8.24992 21.422 10.1897 21.8079C12.1295 22.1937 14.1402 21.9957 15.9675 21.2388C17.7947 20.4819 19.3565 19.2002 20.4553 17.5557C21.5541 15.9112 22.1406 13.9778 22.1406 12C22.1406 9.34784 21.0871 6.8043 19.2117 4.92893C17.3363 3.05357 14.7928 2 12.1406 2ZM12.1406 20C10.5584 20 9.01166 19.5308 7.69607 18.6518C6.38047 17.7727 5.35509 16.5233 4.74959 15.0615C4.14409 13.5997 3.98567 11.9911 4.29435 10.4393C4.60303 8.88743 5.36495 7.46197 6.48378 6.34315C7.6026 5.22433 9.02806 4.4624 10.5799 4.15372C12.1318 3.84504 13.7403 4.00346 15.2021 4.60896C16.6639 5.21447 17.9133 6.23984 18.7924 7.55544C19.6714 8.87103 20.1406 10.4177 20.1406 12C20.1406 14.1217 19.2978 16.1566 17.7975 17.6569C16.2972 19.1571 14.2624 20 12.1406 20Z" fill="currentColor"/>
<path d="M16.1406 10C16.1406 9.20435 15.8246 8.44129 15.2619 7.87868C14.6993 7.31607 13.9363 7 13.1406 7H8.14062V17H10.1406V13H11.6006L14.2706 17H16.6706L13.9206 12.88C14.5549 12.7092 15.1157 12.335 15.5167 11.8147C15.9177 11.2944 16.1369 10.6569 16.1406 10ZM13.1406 11H10.1406V9H13.1406C13.4058 9 13.6602 9.10536 13.8477 9.29289C14.0353 9.48043 14.1406 9.73478 14.1406 10C14.1406 10.2652 14.0353 10.5196 13.8477 10.7071C13.6602 10.8946 13.4058 11 13.1406 11Z" fill="currentColor"/>
</svg>
