<svg width="24" height="24" viewBox="0 0 24 24" fill="none" xmlns="http://www.w3.org/2000/svg">
<g clip-path="url(#clip0_273_41090)">
<path d="M16.2618 17.4593L16.867 14.3024C16.9553 13.9364 17 13.5602 17 13.1827V10.4035C17 10.4035 16.9891 8.55234 14.9912 9.18809C14.9912 8.15744 13.8084 8.19369 13.045 8.21709C12.9413 8.22027 12.8453 8.22321 12.7612 8.22321C12.7612 7.29735 11.7734 7.36744 11.0461 7.41905C10.8948 7.42978 10.7547 7.43972 10.6372 7.43972V4.23601C10.6372 3.55338 10.1087 3 9.45679 3C8.80487 3 8.27638 3.55338 8.27638 4.23601V10.9548C7.72933 9.98899 6.85947 9.58545 6.19558 9.62298C5.63974 9.65439 4.47159 10.1036 5.27158 11.3571C6.14208 12.4316 6.6316 13.526 7.07719 14.5222C7.60129 15.6939 8.06463 16.7298 9.01567 17.4374C9.19103 17.5679 9.40637 17.625 9.62261 17.625H16.0663C16.1615 17.625 16.2434 17.5556 16.2618 17.4593Z" fill="currentColor"/>
<path d="M9.47374 18.75H15.9667C16.1318 18.75 16.2657 18.888 16.2657 19.0583V20.6917C16.2657 20.862 16.1318 21 15.9667 21H9.47374C9.30863 21 9.17479 20.862 9.17479 20.6917V19.0583C9.17479 18.888 9.30863 18.75 9.47374 18.75Z" fill="currentColor"/>
</g>
<defs>
<clipPath id="clip0_273_41090">
<rect width="24" height="24" fill="currentColor"/>
</clipPath>
</defs>
</svg>
