<svg width="24" height="24" viewBox="0 0 24 24" fill="none" xmlns="http://www.w3.org/2000/svg">
<g clip-path="url(#clip0_273_41096)">
<path d="M11.919 9.66234V7.31249M11.919 7.31249C12.7566 7.31249 14.5259 6.91161 14.5259 8.24999M11.919 7.31249V3.4488C11.919 2.64865 11.2703 2 10.4702 2C9.67003 2 9.02138 2.64865 9.02138 3.4488V11.5185C8.34994 10.3629 7.2823 9.88003 6.46746 9.92493C5.78523 9.96252 4.35148 10.5 5.33336 12C7.77461 14.9375 7.77459 18 10.2681 19.5M10.2681 19.5H18.7835M10.2681 19.5V22H18.7835V19.5M18.7835 19.5L19.8535 15.1779C19.9508 14.7848 20 14.3814 20 13.9764V10.5803C20 10.5803 19.7151 8.64382 17.2629 9.40455M17.2629 9.40455V11.0625M17.2629 9.40455C17.2629 8.00383 15.3902 8.24999 14.5259 8.24999M14.5259 8.24999V10.125" stroke="currentColor" stroke-linecap="round" stroke-linejoin="round"/>
</g>
<defs>
<clipPath id="clip0_273_41096">
<rect width="24" height="24" fill="currentColor"/>
</clipPath>
</defs>
</svg>
