<svg width="24" height="24" viewBox="0 0 24 24" fill="none" xmlns="http://www.w3.org/2000/svg">
<path d="M19.003 8.004C20.1087 8.004 21.005 7.10767 21.005 6.002C21.005 4.89633 20.1087 4 19.003 4C17.8973 4 17.001 4.89633 17.001 6.002C17.001 7.10767 17.8973 8.004 19.003 8.004Z" fill="currentColor"/>
<path d="M18.875 13.2191C18.308 13.6721 17.897 14.0001 16.997 14.0001C16.098 14.0001 15.709 13.6891 15.121 13.2191C14.441 12.6761 13.596 12.0001 11.994 12.0001C10.393 12.0001 9.549 12.6761 8.87 13.2191C8.282 13.6891 7.895 14.0001 6.995 14.0001C6.097 14.0001 5.709 13.6891 5.122 13.2201C4.443 12.6761 3.6 12.0001 2 12.0001V14.0001C2.897 14.0001 3.285 14.3111 3.872 14.7801C4.551 15.3241 5.395 16.0001 6.995 16.0001C8.595 16.0001 9.441 15.3241 10.12 14.7801C10.707 14.3101 11.096 14.0001 11.994 14.0001C12.894 14.0001 13.305 14.3281 13.872 14.7811C14.551 15.3241 15.396 16.0001 16.997 16.0001C18.599 16.0001 19.444 15.3241 20.124 14.7811C20.712 14.3111 21.101 14.0001 22 14.0001V12.0001C20.399 12.0001 19.554 12.6761 18.875 13.2191ZM16.997 19.0001C16.098 19.0001 15.709 18.6891 15.121 18.2191C14.441 17.6761 13.596 17.0001 11.994 17.0001C10.393 17.0001 9.549 17.6761 8.87 18.2191C8.282 18.6891 7.895 19.0001 6.995 19.0001C6.097 19.0001 5.709 18.6891 5.122 18.2201C4.443 17.6761 3.6 17.0001 2 17.0001V19.0001C2.897 19.0001 3.285 19.3111 3.872 19.7801C4.551 20.3241 5.395 21.0001 6.995 21.0001C8.595 21.0001 9.441 20.3241 10.12 19.7801C10.707 19.3101 11.096 19.0001 11.994 19.0001C12.894 19.0001 13.305 19.3281 13.872 19.7811C14.551 20.3241 15.396 21.0001 16.997 21.0001C18.599 21.0001 19.444 20.3241 20.124 19.7811C20.712 19.3111 21.101 19.0001 22 19.0001V17.0001C20.399 17.0001 19.554 17.6761 18.875 18.2191C18.308 18.6721 17.897 19.0001 16.997 19.0001ZM11 5.41908L13.104 7.52308L11.047 10.0931C11.333 10.0371 11.643 10.0001 11.994 10.0001C13.596 10.0001 14.441 10.6761 15.121 11.2191C15.709 11.6891 16.098 12.0001 16.997 12.0001C17.897 12.0001 18.308 11.6721 18.875 11.2191C19.007 11.1141 19.149 11.0021 19.298 10.8931L17.202 8.80308L17.207 8.79808L11.707 3.29808C11.6142 3.20514 11.504 3.1314 11.3827 3.08109C11.2614 3.03078 11.1313 3.00488 11 3.00488C10.8687 3.00488 10.7386 3.03078 10.6173 3.08109C10.496 3.1314 10.3858 3.20514 10.293 3.29808L6.293 7.29808L7.707 8.71208L11 5.41908Z" fill="currentColor"/>
</svg>
