<svg width="24" height="24" viewBox="0 0 24 24" fill="none" xmlns="http://www.w3.org/2000/svg">
<path d="M19.9998 4H8.51479C8.19648 4.00013 7.88279 4.07623 7.59981 4.22198C7.31683 4.36774 7.07272 4.57893 6.88778 4.838L2.18679 11.419C2.06532 11.5884 2 11.7916 2 12C2 12.2084 2.06532 12.4116 2.18679 12.581L6.88778 19.162C7.07272 19.4211 7.31683 19.6323 7.59981 19.778C7.88279 19.9238 8.19648 19.9999 8.51479 20H19.9998C21.1028 20 21.9998 19.103 21.9998 18V6C21.9998 4.897 21.1028 4 19.9998 4ZM19.9998 18H8.51479L4.22879 12L8.51479 6H19.9998V18Z" fill="currentColor"/>
</svg>
