<svg width="24" height="24" viewBox="0 0 24 24" fill="none" xmlns="http://www.w3.org/2000/svg">
<path d="M4.92816 19.081C6.82316 20.976 9.33316 22.019 11.9992 22.019C14.6652 22.019 17.1762 20.976 19.0702 19.081C22.9692 15.182 22.9692 8.838 19.0702 4.938C17.1762 3.044 14.6642 2 11.9992 2C9.33416 2 6.82216 3.044 4.92816 4.938C1.02916 8.837 1.02916 15.182 4.92816 19.081ZM17.6562 17.667C16.6082 18.7179 15.2876 19.4552 13.8432 19.796C13.8342 18.194 14.4292 16.65 15.5342 15.545C16.6972 14.382 18.2662 13.717 19.8112 13.694C19.4926 15.199 18.744 16.5792 17.6562 17.667ZM19.9812 11.702C17.8572 11.681 15.6972 12.555 14.1202 14.131C12.5882 15.663 11.7932 17.811 11.8572 20.012C9.78287 19.9804 7.80321 19.1388 6.34116 17.667C4.87728 16.2024 4.04091 14.2255 4.00916 12.155C4.08616 12.157 4.16316 12.169 4.24016 12.169C6.35516 12.169 8.40016 11.365 9.87716 9.889C11.4572 8.309 12.3342 6.15 12.3072 4.016C14.322 4.08836 16.2341 4.92375 17.6562 6.353C19.08 7.77763 19.9108 9.68906 19.9812 11.702ZM6.34216 6.353C7.42896 5.26113 8.80899 4.50772 10.3152 4.184C10.2972 5.739 9.63016 7.308 8.46416 8.475C7.36016 9.578 5.82216 10.171 4.22616 10.166C4.56124 8.72221 5.29431 7.40125 6.34216 6.353Z" fill="currentColor"/>
</svg>
