<svg width="24" height="24" viewBox="0 0 24 24" fill="none" xmlns="http://www.w3.org/2000/svg">
<path d="M12 6.1709C16.1922 6.1709 19.8309 8.53318 21.6631 11.998C19.831 15.4632 16.1924 17.8262 12 17.8262C7.80745 17.8261 4.16786 15.4635 2.33594 11.998C4.16794 8.5329 7.80764 6.17101 12 6.1709ZM12 7.62793C8.65052 7.62804 5.70693 9.36787 4.02246 11.998C5.70691 14.6287 8.65046 16.369 12 16.3691C15.349 16.3691 18.291 14.6284 19.9756 11.998C18.291 9.36809 15.3489 7.62793 12 7.62793ZM12 9.08496C13.6089 9.0852 14.9131 10.39 14.9131 11.999C14.9128 13.6078 13.6088 14.9119 12 14.9121C10.391 14.9121 9.08617 13.608 9.08594 11.999C9.08594 10.3899 10.3909 9.08496 12 9.08496Z" fill="currentColor"/>
</svg>
