<svg width="24" height="24" viewBox="0 0 24 24" fill="none" xmlns="http://www.w3.org/2000/svg">
<path d="M13.0005 6C14.1051 6 15.0005 5.10457 15.0005 4C15.0005 2.89543 14.1051 2 13.0005 2C11.8959 2 11.0005 2.89543 11.0005 4C11.0005 5.10457 11.8959 6 13.0005 6Z" fill="currentColor"/>
<path d="M13.9785 12.27C14.2235 12.638 14.5895 12.917 15.0095 13.057L17.6845 13.949L18.3175 12.053L15.6425 11.161L13.9795 8.666C13.786 8.37715 13.5211 8.14324 13.2105 7.987L11.7765 7.27C11.3499 7.05672 10.8608 7.00384 10.3985 7.121L7.20547 7.918C6.92521 7.98783 6.66338 8.11746 6.43795 8.29802C6.21252 8.47857 6.02882 8.70576 5.89947 8.964L4.10547 12.553L5.89447 13.448L7.68847 9.859L9.91147 9.303L8.10747 17.649L4.43347 20.176L5.56647 21.824L9.24147 19.296C9.66247 19.006 9.95447 18.571 10.0615 18.071L10.5785 15.683L13.0955 17.571L14.0205 22.196L15.9815 21.803L15.0565 17.176C14.9593 16.694 14.6881 16.2647 14.2945 15.97L12.1235 14.342L12.7705 10.457L13.9785 12.27Z" fill="currentColor"/>
</svg>
