<svg xmlns="http://www.w3.org/2000/svg" width="24" height="24" fill="currentColor" viewBox="0 0 24 24">
  <path fill="currentColor" d="M13.4 2.096a10.08 10.08 0 0 0-8.938 3.331A10.054 10.054 0 0 0 2.095 13.4c.53 3.894 3.458 7.207 7.285 8.246a9.977 9.977 0 0 0 2.618.354l.142-.001a3.001 3.001 0 0 0 2.516-1.426 2.988 2.988 0 0 0 .153-2.879l-.199-.416a1.92 1.92 0 0 1 .094-1.912 2.005 2.005 0 0 1 2.576-.755l.412.197c.412.198.85.299 1.301.299A3.022 3.022 0 0 0 22 12.14a9.932 9.932 0 0 0-.353-2.76c-1.04-3.826-4.353-6.754-8.247-7.284Zm5.157 10.909-.412-.197c-1.828-.878-4.07-.198-5.135 1.494-.738 1.176-.813 2.576-.204 3.842l.2.416a.984.984 0 0 1-.052.961.991.991 0 0 1-.844.479h-.112a8.058 8.058 0 0 1-2.095-.283c-3.063-.831-5.403-3.479-5.826-6.586-.32-2.355.352-4.623 1.893-6.389a8.002 8.002 0 0 1 7.16-2.664c3.107.423 5.755 2.764 6.586 5.826.198.73.293 1.474.282 2.207-.012.807-.845 1.183-1.44.894Z"/>
  <path fill="currentColor" d="M7.5 16a1.5 1.5 0 1 0 0-3 1.5 1.5 0 0 0 0 3Zm0-4a1.5 1.5 0 1 0 0-3 1.5 1.5 0 0 0 0 3Zm3-3a1.5 1.5 0 1 0 0-3 1.5 1.5 0 0 0 0 3Zm4 0a1.5 1.5 0 1 0 0-3 1.5 1.5 0 0 0 0 3Z"/>
</svg>
